<?xml version="1.0" standalone="no"?>
<!DOCTYPE svg PUBLIC "-//W3C//DTD SVG 1.1//EN" "http://www.w3.org/Graphics/SVG/1.1/DTD/svg11.dtd" >
<svg xmlns="http://www.w3.org/2000/svg">
<metadata>
This is a custom SVG webfont generated by Font Squirrel.
Copyright   : Copyright c 2010 by Brian J Bonislawsky DBA Astigmatic AOETI All rights reserved Available under the Apache 20 licencehttpwwwapacheorglicensesLICENSE20html
Designer    : Astigmatic AOETI
Foundry     : Astigmatic AOETI
Foundry URL : httpwwwastigmaticcom
</metadata>
<defs>
<font id="UltraRegular" horiz-adv-x="1434" >
<font-face units-per-em="2048" ascent="1638" descent="-410" />
<missing-glyph horiz-adv-x="614" />
<glyph unicode=" "  horiz-adv-x="614" />
<glyph unicode="&#x09;" horiz-adv-x="614" />
<glyph unicode="&#xa0;" horiz-adv-x="614" />
<glyph unicode="!" horiz-adv-x="754" d="M123 211q0 51 20.5 98t54 81t80 54.5t99.5 20.5q51 0 98 -20.5t81 -54.5t54.5 -81t20.5 -98q0 -53 -20.5 -99t-54.5 -80t-81 -54.5t-98 -20.5q-53 0 -99.5 20.5t-80 54.5t-54 80t-20.5 99zM123 1260q0 51 20.5 98t54 81t80 54t99.5 20q51 0 98 -20t81 -54t54.5 -81 t20.5 -98q0 -19 -2 -42.5t-6 -39.5l-113 -646h-262l-117 646q-4 18 -6 39.5t-2 42.5z" />
<glyph unicode="&#x22;" horiz-adv-x="1006" d="M82 1337q0 70 46 123t140 53t139.5 -52t45.5 -120q0 -63 -19.5 -184t-83.5 -317h-164q-32 98 -52.5 177t-32 139.5t-15.5 105.5t-4 75zM553 1337q0 70 46 123t140 53q95 0 140 -52t45 -120q0 -63 -19.5 -184t-83.5 -317h-164q-32 98 -52.5 177t-32 139.5t-15.5 105.5 t-4 75z" />
<glyph unicode="#" horiz-adv-x="1532" d="M41 373l96 258h256l53 143h-274l96 258h267l135 373h278l-133 -373h141l136 373h276l-131 -373h254l-96 -258h-248l-53 -143h266l-96 -258h-258l-136 -373h-278l133 373h-141l-135 -373h-279l133 373h-262zM670 631h149l49 143h-147z" />
<glyph unicode="$" horiz-adv-x="1231" d="M61 969q0 86 37 151.5t99.5 110.5t144.5 69.5t172 24.5v168h203v-193q49 -14 88 -31.5t65 -33.5v72h263v-422h-263q-6 41 -28.5 75.5t-54 59t-70.5 39t-78 14.5q-49 0 -81 -18.5t-32 -53.5q0 -43 48.5 -65.5t119.5 -41.5l154 -44q84 -23 154.5 -67t118.5 -117.5 t48 -192.5q0 -88 -36.5 -152.5t-99 -107.5t-144.5 -64.5t-172 -25.5v-164h-203v180q-88 21 -182 74v-70h-260v432h260q22 -94 91 -147t155 -53q59 0 86.5 22.5t27.5 48.5q0 43 -47 67t-117 43l-151 42q-82 23 -151.5 67t-117 115.5t-47.5 188.5z" />
<glyph unicode="%" horiz-adv-x="1851" d="M51 1112q0 92 29 163t80 119t122.5 73.5t157.5 25.5t158 -25.5t123 -73.5t79.5 -119t28.5 -163t-28.5 -162.5t-79.5 -119t-123 -74t-158 -25.5t-157.5 25.5t-122.5 74t-80 119t-29 162.5zM240 0l1083 1473h289l-1084 -1473h-288zM358 1112q0 -59 3.5 -99t12.5 -62.5 t25.5 -32t40.5 -9.5q25 0 40.5 9.5t24.5 32t13 62.5t4 99q0 119 -16.5 161t-65.5 42t-65.5 -42t-16.5 -161zM1022 360q0 93 28.5 163.5t80 118.5t123 73.5t157.5 25.5t157.5 -25.5t123 -73.5t80 -118.5t28.5 -163.5q0 -92 -28.5 -162.5t-80 -118.5t-123 -73.5t-157.5 -25.5 t-157.5 25.5t-123 73.5t-80 118.5t-28.5 162.5zM1329 360q0 -59 3 -99t12.5 -62.5t25.5 -31.5t41 -9t40 9t24.5 31.5t13.5 62.5t4 99q0 119 -16.5 161t-65.5 42t-65.5 -42t-16.5 -161z" />
<glyph unicode="&#x26;" horiz-adv-x="2015" d="M51 403q0 89 31 159.5t84 123.5t127 91t160 61q-50 77 -77.5 151t-27.5 133q0 121 53.5 197t138.5 119t190.5 59t209.5 16q90 0 177 -18t156.5 -57t111.5 -99.5t42 -144.5q0 -80 -34.5 -135t-93 -96t-133 -72t-154.5 -60q88 -104 174 -182t190 -155q17 6 31 19t14 34 q0 20 -18.5 36.5t-97.5 16.5v285h649v-285h-47q-54 0 -94.5 -29.5t-77.5 -71.5t-72 -86t-76 -73q12 -8 28.5 -13t34 -9.5t33 -6.5t23.5 -2q55 0 97 38t42 147h109q0 -154 -22.5 -257.5t-69.5 -166t-120 -88t-175 -25.5q-103 0 -196 31.5t-171 83.5l-91 -39 q-48 -21 -108.5 -38.5t-139.5 -27.5t-185 -10q-127 0 -240.5 26.5t-198.5 81t-135.5 138.5t-50.5 200zM551 434q0 -98 58.5 -146t144.5 -48q34 0 74 6t77 20l-88 80q-39 37 -73.5 75t-66.5 78l-67 87q-32 -25 -45.5 -68t-13.5 -84zM809 1171q0 -34 16.5 -67t46.5 -84 q64 35 102 67.5t38 92.5q0 32 -25.5 57t-71.5 25q-51 0 -78.5 -25t-27.5 -66z" />
<glyph unicode="'" horiz-adv-x="535" d="M82 1337q0 70 46 123t140 53t139.5 -52t45.5 -120q0 -63 -19.5 -184t-83.5 -317h-164q-32 98 -52.5 177t-32 139.5t-15.5 105.5t-4 75z" />
<glyph unicode="(" horiz-adv-x="983" d="M82 606q0 193 56.5 349.5t162 272t258 188.5t342.5 100v-302q-143 -55 -203.5 -212.5t-60.5 -397.5q0 -235 61.5 -393t202.5 -211v-303q-192 27 -345 100.5t-258 189t-160.5 271.5t-55.5 348z" />
<glyph unicode=")" horiz-adv-x="983" d="M82 0q141 53 202.5 211t61.5 393q0 240 -60.5 397.5t-203.5 212.5v302q190 -27 343 -100t258 -188.5t161.5 -272t56.5 -349.5q0 -192 -55 -348t-160.5 -271.5t-258.5 -189t-345 -100.5v303z" />
<glyph unicode="*" horiz-adv-x="1069" d="M123 922q0 65 48 92.5t108 27.5l92 10q47 5 92 23q-84 37 -221 37q-43 0 -81 33t-38 86q0 55 37 96t94 41q53 0 79.5 -28.5t55.5 -71.5l45 -61q25 -33 62 -64q-7 49 -22 90t-32 72q-14 28 -25 56t-11 50q0 51 34.5 84t94.5 33q59 0 94 -37t35 -84q0 -23 -9.5 -45.5 t-25.5 -50.5q-17 -31 -33 -73t-27 -97q37 26 63.5 59t49.5 66q29 43 57.5 73.5t79.5 30.5t89 -39t38 -92q0 -70 -42 -97.5t-126 -31.5q-53 -4 -95 -10t-77 -21q51 -22 99 -27l100 -10q67 -4 104 -35.5t37 -84.5q0 -62 -39 -102t-86 -40q-53 0 -81.5 31t-57.5 76l-46 63 q-26 35 -63 64q7 -51 23 -90t33 -72q16 -29 26.5 -55.5t10.5 -51.5q0 -49 -35 -83.5t-94 -34.5q-60 0 -94.5 31.5t-34.5 86.5q0 23 9 48.5t25 54.5q17 33 33.5 71.5t24.5 92.5q-35 -27 -60 -60l-49 -65q-29 -43 -57.5 -74t-79.5 -31q-55 0 -93 42t-38 98z" />
<glyph unicode="+" d="M154 553v326h399v399h326v-399h401v-326h-401v-401h-326v401h-399z" />
<glyph unicode="," horiz-adv-x="676" d="M82 223q0 51 19.5 95t53 77t81 51.5t100.5 18.5q57 0 104 -22.5t81 -59.5t53.5 -86t19.5 -102q0 -74 -20.5 -152t-71.5 -145.5t-141.5 -116.5t-227.5 -66v172q80 4 127 28t76 73q-111 0 -182.5 58t-71.5 177z" />
<glyph unicode="-" horiz-adv-x="860" d="M82 424v395h696v-395h-696z" />
<glyph unicode="." horiz-adv-x="672" d="M82 211q0 51 20.5 98t54 81t80 54.5t99.5 20.5q51 0 98 -20.5t81 -54.5t54.5 -81t20.5 -98q0 -53 -20.5 -99t-54.5 -80t-81 -54.5t-98 -20.5q-53 0 -99.5 20.5t-80 54.5t-54 80t-20.5 99z" />
<glyph unicode="/" horiz-adv-x="922" d="M102 0l428 1473h289l-428 -1473h-289z" />
<glyph unicode="0" horiz-adv-x="1573" d="M45 725q0 184 55.5 327.5t153.5 241t234.5 148.5t297.5 51q162 0 298.5 -51t234.5 -148.5t153.5 -241t55.5 -327.5t-55.5 -327.5t-153.5 -241t-234.5 -148.5t-298.5 -51q-161 0 -297.5 51t-234.5 148.5t-153.5 241t-55.5 327.5zM623 725q0 -240 32.5 -344.5t130.5 -104.5 q99 0 131.5 104.5t32.5 344.5t-32.5 344.5t-131.5 104.5q-98 0 -130.5 -104.5t-32.5 -344.5z" />
<glyph unicode="1" horiz-adv-x="1006" d="M51 958v330q43 0 92.5 8.5t90 29t67.5 56t27 91.5h463v-994q0 -67 32.5 -87.5t83.5 -20.5h68v-371h-903v371h80q53 0 78.5 33.5t25.5 72.5v481h-205z" />
<glyph unicode="2" horiz-adv-x="1454" d="M25 1057q0 96 51 176t143 138.5t221 90t283 31.5q164 0 289 -35t210 -96.5t128 -143t43 -174.5q0 -112 -36 -187t-97.5 -124t-141.5 -80.5t-168 -55.5l-178 -47q-90 -24 -171 -59.5t-147.5 -88t-105.5 -134.5l17 -6q20 25 53 54.5t76 55t97 43t118 17.5q65 0 110 -7 t82 -15l70 -14q33 -7 73 -7q76 0 119 33t43 123h197q0 -191 -36 -303.5t-98.5 -171t-148.5 -74.5t-184 -16q-78 0 -150.5 15t-138.5 32l-127 33q-61 16 -114 16q-46 0 -72.5 -12.5t-42.5 -26.5q-19 -17 -29 -37h-229q0 150 33.5 259.5t89 191t127 140t145.5 102.5t145.5 79 t127 72t89 80t33.5 102q0 88 -68.5 131t-164.5 43q-68 0 -122 -10t-103 -35q61 -18 106 -58t45 -118q0 -35 -15.5 -67.5t-45 -59.5t-74.5 -42t-102 -15q-43 0 -88.5 14t-82 45t-60 81t-23.5 122z" />
<glyph unicode="3" horiz-adv-x="1540" d="M45 418q0 67 20.5 120.5t56.5 89.5t84 54t101 18q68 0 114 -18t73.5 -46t40 -61.5t12.5 -64.5q0 -84 -50.5 -129t-111.5 -64q100 -61 270 -61q140 0 205.5 53t65.5 152q0 49 -19.5 84t-51.5 56.5t-73 31.5t-82 10h-71v217h71q99 0 148 49t49 115q0 51 -19.5 86t-51 55.5 t-74.5 28.5t-90 8q-103 0 -153 -22.5t-75 -42.5q21 -2 46.5 -10.5t47 -25t36 -45t14.5 -71.5q0 -80 -57.5 -128t-168.5 -48q-53 0 -101 16.5t-85 50t-58.5 83t-21.5 116.5q0 94 47 171t135 132.5t213 85t281 29.5q129 0 254 -19.5t222 -66.5t156.5 -124t59.5 -189 q0 -140 -83 -225t-251 -113v-11q168 -20 271.5 -109t103.5 -257q0 -72 -38 -146.5t-125 -135t-228 -99.5t-346 -39q-195 0 -331 41t-221 105.5t-123 146.5t-38 166z" />
<glyph unicode="4" horiz-adv-x="1487" d="M41 494v303l645 676h555v-762h225v-217h-225v-35q0 -35 5 -52.5t17.5 -25.5t31 -9t42.5 -1h47v-371h-841v371h59q53 0 68.5 23.5t15.5 62.5v37h-645zM313 711h373v399z" />
<glyph unicode="5" horiz-adv-x="1448" d="M31 371q0 71 22.5 124.5t59.5 87t84 50t94 16.5q117 0 174 -49t57 -127t-45 -118t-106 -58q49 -25 104 -38t123 -13q135 0 202.5 71.5t67.5 182.5q0 116 -74.5 177.5t-201.5 61.5q-84 0 -135 -17t-76 -28h-250v799h43q78 -14 138.5 -22.5t122 -12.5t132 -5t166.5 -1 q113 0 199 2t152.5 6t119.5 12.5t101 20.5l49 -20q-21 -87 -54.5 -160.5t-100 -125.5t-178.5 -82t-286 -30q-102 0 -158.5 5t-93.5 14v-133q19 6 39.5 10t48 8t64.5 6t88 2q192 0 322.5 -42t208 -114.5t110.5 -168t33 -201.5q0 -109 -42 -200t-129 -158.5t-220.5 -105.5 t-317.5 -38q-309 0 -483 107.5t-174 304.5z" />
<glyph unicode="6" horiz-adv-x="1495" d="M45 705q0 184 58.5 330.5t161 247.5t241.5 155.5t301 54.5q145 0 256 -27.5t186.5 -75t113.5 -110.5t38 -135q0 -64 -20.5 -107t-56.5 -69.5t-81 -37.5t-94 -11q-105 0 -162 42t-57 117q0 41 12 68t31.5 44t41 26.5t40.5 13.5q-23 12 -52.5 22.5t-91.5 10.5 q-65 0 -124.5 -27t-104.5 -82t-70.5 -139t-25.5 -197q53 33 125.5 56.5t181.5 23.5q268 0 414.5 -114.5t146.5 -325.5q0 -115 -48 -208t-135 -158.5t-211 -100.5t-274 -35q-161 0 -297.5 48t-234.5 141.5t-153.5 233.5t-55.5 325zM649 436q0 -92 37 -149.5t115 -57.5 t114.5 57.5t36.5 149.5t-36.5 149.5t-114.5 57.5t-115 -57.5t-37 -149.5z" />
<glyph unicode="7" horiz-adv-x="1282" d="M31 887v586h309v-93q25 43 76 78t149 35q58 0 111 -13.5t102 -28.5t94.5 -27.5t81.5 -12.5q33 0 65 17.5t42 44.5h221q0 -136 -35 -242.5t-87 -204.5t-113.5 -197.5t-113.5 -218t-87 -267t-35 -343.5h-555q0 162 25.5 281.5t70.5 213t107.5 167t135.5 142.5l154 140 q80 72 162 160l-8 8q-43 -39 -88 -61.5t-94 -22.5q-33 0 -73 8t-79 19.5t-69.5 19.5t-42.5 8q-21 0 -41.5 -5t-38 -25.5t-27.5 -59.5t-10 -106h-309z" />
<glyph unicode="8" horiz-adv-x="1532" d="M45 387q0 168 103.5 256t271.5 102v11q-154 22 -234 110t-80 228q0 116 54.5 193t145.5 123t211 64.5t249 18.5q121 0 238.5 -18.5t211 -64.5t150.5 -123t57 -193q0 -140 -78.5 -228t-232.5 -110v-11q168 -14 271.5 -102t103.5 -256q0 -72 -34 -147.5t-117 -138 t-223 -102.5t-355 -40q-209 0 -347.5 40t-219 102.5t-113.5 138t-33 147.5zM614 451q0 -84 37 -137.5t115 -53.5t115 53.5t37 137.5t-37 135t-115 51t-115 -51t-37 -135zM639 1034q0 -73 29.5 -121.5t95.5 -48.5q67 0 97 48.5t30 121.5q0 76 -30 122t-97 46q-66 0 -95.5 -46 t-29.5 -122z" />
<glyph unicode="9" horiz-adv-x="1495" d="M41 991q0 115 48 208t135 158.5t210 100.5t275 35q161 0 297.5 -48t234.5 -141.5t153.5 -233.5t55.5 -325q0 -186 -61.5 -332.5t-171 -248t-258 -154.5t-320.5 -53q-143 0 -245.5 26.5t-169 72.5t-98.5 107.5t-32 129.5q0 63 20.5 108t56.5 74t81 42t94 13q105 0 162 -42 t57 -117q0 -41 -12 -68t-31.5 -44t-41 -26.5t-40.5 -13.5q23 -12 52.5 -22.5t91.5 -10.5q65 0 124.5 27t103.5 82t70.5 139t26.5 197q-53 -33 -125.5 -56.5t-181.5 -23.5q-268 0 -414.5 114.5t-146.5 325.5zM543 1014q0 -92 36.5 -149.5t114.5 -57.5t115 57.5t37 149.5 t-37 149.5t-115 57.5t-114.5 -57.5t-36.5 -149.5z" />
<glyph unicode=":" horiz-adv-x="754" d="M123 211q0 51 20.5 98t54 81t80 54.5t99.5 20.5q51 0 98 -20.5t81 -54.5t54.5 -81t20.5 -98q0 -53 -20.5 -99t-54.5 -80t-81 -54.5t-98 -20.5q-53 0 -99.5 20.5t-80 54.5t-54 80t-20.5 99zM123 848q0 51 20.5 98t54 81t80 54.5t99.5 20.5q51 0 98 -20.5t81 -54.5 t54.5 -81t20.5 -98q0 -53 -20.5 -99.5t-54.5 -80t-81 -54t-98 -20.5q-53 0 -99.5 20.5t-80 54t-54 80t-20.5 99.5z" />
<glyph unicode=";" horiz-adv-x="754" d="M123 223q0 51 19.5 95t53 77t81 51.5t100.5 18.5q57 0 104 -22.5t81 -59.5t53.5 -86t19.5 -102q0 -74 -20.5 -152t-71.5 -145.5t-141.5 -116.5t-227.5 -66v172q80 4 127 28t76 73q-111 0 -182.5 58t-71.5 177zM123 848q0 51 20.5 98t54 81t80 54.5t99.5 20.5 q51 0 98 -20.5t81 -54.5t54.5 -81t20.5 -98q0 -53 -20.5 -99.5t-54.5 -80t-81 -54t-98 -20.5q-53 0 -99.5 20.5t-80 54t-54 80t-20.5 99.5z" />
<glyph unicode="&#x3c;" d="M186 596v242l897 516l164 -283l-616 -356l616 -357l-162 -280z" />
<glyph unicode="=" d="M174 266v326h1086v-326h-1086zM174 840v325h1086v-325h-1086z" />
<glyph unicode="&#x3e;" d="M186 358l617 357l-617 356l164 283l897 -516v-242l-899 -518z" />
<glyph unicode="?" horiz-adv-x="1307" d="M61 1124q0 88 44.5 157t123 116t188 71.5t240.5 24.5q285 0 426.5 -101.5t141.5 -287.5q0 -92 -36 -159.5t-91.5 -117t-117.5 -85.5l-118 -71q-55 -34 -91 -69t-36 -80h-282q0 80 16 140.5t41 106.5t54.5 84t54 76t41 78t16.5 91t-22.5 88t-58.5 55.5t-82 18.5t-91 -23 q61 -18 96 -59t35 -117q0 -35 -15.5 -67.5t-45 -59.5t-74.5 -42t-103 -15q-43 0 -88 11t-81.5 39.5t-60.5 77t-24 119.5zM342 211q0 51 20.5 98t54.5 81t80 54.5t99 20.5q51 0 98 -20.5t81 -54.5t54.5 -81t20.5 -98q0 -53 -20.5 -99t-54.5 -80t-81 -54.5t-98 -20.5 q-53 0 -99 20.5t-80 54.5t-54.5 80t-20.5 99z" />
<glyph unicode="@" horiz-adv-x="1923" d="M102 612q0 191 77 356t209 286.5t308 190t373 68.5q166 0 304 -49t237.5 -139t155 -215t55.5 -279q0 -133 -38 -249.5t-105.5 -204.5t-161 -138.5t-203.5 -50.5q-84 0 -142.5 33t-87.5 92q-51 -61 -115.5 -92t-133.5 -31q-158 0 -246 96.5t-88 262.5q0 110 44 210.5 t116.5 177.5t166 122t193.5 45q137 0 201 -82l16 61h293l-176 -630l-8 -34q-3 -16 -3 -32q0 -22 11.5 -37.5t40.5 -15.5q55 0 104 44t87 114.5t60.5 158.5t22.5 178q0 127 -44 227.5t-121 169t-182 105.5t-230 37q-170 0 -310.5 -60.5t-243 -167t-158.5 -248.5t-56 -304 q0 -152 48 -267.5t138 -195.5t218 -121t288 -41q71 0 142 8.5t144.5 31t152.5 62t165 103.5l76 -113q-318 -239 -678 -239q-207 0 -375 55t-289 158.5t-186.5 251t-65.5 331.5zM821 442q0 -92 66 -92q45 0 88 61.5t76.5 146.5t53 175t19.5 150q0 30 -16 46.5t-39 16.5 q-51 0 -96 -57.5t-79 -137t-53.5 -165.5t-19.5 -144z" />
<glyph unicode="A" horiz-adv-x="1647" d="M20 0v371h41q72 0 96.5 28.5t47.5 83.5l205 506q13 35 13 59q0 16 -5 27q-15 27 -88 27h-21v371h1028v-371h-20q-74 0 -88 -29q-6 -11 -6 -26q0 -24 14 -58l205 -506l22 -48q9 -21 23 -35.5t37.5 -21.5t60.5 -7h41v-371h-909v371h55q56 1 76 29q11 16 11 35q0 16 -7 36 l-14 43h-316l-14 -43q-8 -20 -8 -37q0 -19 10 -34q18 -28 76 -29h57v-371h-623zM573 670h213l-100 307h-8z" />
<glyph unicode="B" horiz-adv-x="1722" d="M41 0v371q88 0 126 23.5t38 88.5v506q0 66 -38 89.5t-126 23.5v371h1169q138 0 223 -31t131 -82t61 -117.5t15 -136.5q0 -320 -333 -350v-11q174 -4 274 -95t100 -263q0 -72 -17 -141.5t-73.5 -123.5t-163 -88t-286.5 -34h-1100zM795 371h149q84 0 116 32.5t32 108.5 t-32 110.5t-116 34.5h-149v-286zM795 834h151q62 0 89.5 39.5t27.5 95.5q0 53 -27.5 93t-89.5 40h-151v-268z" />
<glyph unicode="C" horiz-adv-x="1616" d="M51 735q0 207 63.5 354.5t168 241.5t238.5 138t278 44q67 0 125.5 -11t106.5 -28.5t83 -37t57 -35.5v72h330v-545h-350q0 67 -16.5 112t-44 73t-64.5 40t-80 12q-59 0 -101 -22.5t-68.5 -72.5t-40 -133t-13.5 -202q0 -121 14.5 -202.5t44 -132t75.5 -73t110 -22.5 q43 0 83 16.5t70.5 50.5t48 85t17.5 123h348q0 -127 -40 -240t-125 -198t-216 -135t-311 -50q-162 0 -306.5 44t-252 138t-170 241.5t-62.5 354.5z" />
<glyph unicode="D" horiz-adv-x="1901" d="M41 0v371q88 0 126 23.5t38 88.5v506q0 66 -38 89.5t-126 23.5v371h1061q143 0 277 -38t238.5 -124t168 -227.5t63.5 -348.5t-62.5 -348t-170 -227t-251.5 -124t-306 -38zM795 371h94q55 0 107.5 12t92 50t64.5 109.5t25 192.5q0 119 -24 191.5t-62.5 111.5t-92 51.5 t-110.5 12.5h-94v-731z" />
<glyph unicode="E" horiz-adv-x="1507" d="M41 0v371q88 0 126 23.5t38 88.5v506q0 66 -38 89.5t-126 23.5v371h1425v-545h-350q0 53 -6 87t-22.5 53t-44 26.5t-68.5 7.5h-180v-266h319v-177h-319v-288h180q41 0 68.5 7t44 26.5t22.5 53.5t6 87h350v-545h-1425z" />
<glyph unicode="F" horiz-adv-x="1507" d="M41 371q88 0 126 23.5t38 88.5v506q0 66 -38 89.5t-126 23.5v371h1384v-566h-350q0 62 -6 99.5t-22.5 59t-44 29t-68.5 7.5h-139v-289h319v-176h-319v-154q0 -53 26.5 -82.5t96.5 -29.5h102v-371h-979v371z" />
<glyph unicode="G" horiz-adv-x="1794" d="M31 735q0 207 66.5 354.5t175 241.5t245.5 138t281 44q84 0 151.5 -13t118.5 -32.5t86 -41.5l57 -35v82h330v-545h-350q-4 106 -63.5 171.5t-165.5 65.5q-54 0 -101 -19.5t-83 -68.5t-56.5 -132t-20.5 -210q0 -121 13.5 -202.5t42 -132t72.5 -73t106 -22.5q14 0 35.5 3 t41 10.5t34 19.5t14.5 33v55q0 47 -32 71.5t-120 24.5v330h844v-330q-88 0 -126 -23.5t-38 -88.5v-410h-307l-33 100q-63 -57 -173.5 -100t-254.5 -43q-162 0 -306 44t-251.5 138t-170 241.5t-62.5 354.5z" />
<glyph unicode="H" horiz-adv-x="1933" d="M41 0v371q88 0 126 23.5t38 88.5v506q0 66 -38 89.5t-126 23.5v371h889v-371q-76 0 -105.5 -23.5t-29.5 -77.5v-161h344v161q0 54 -30 77.5t-105 23.5v371h888v-371q-88 0 -125.5 -23.5t-37.5 -89.5v-506q0 -65 37.5 -88.5t125.5 -23.5v-371h-888v371q75 0 105 23.5 t30 76.5v186h-344v-186q0 -53 29.5 -76.5t105.5 -23.5v-371h-889z" />
<glyph unicode="I" horiz-adv-x="999" d="M41 0v371q88 0 126 23.5t38 88.5v506q0 66 -38 89.5t-126 23.5v371h917v-371q-88 0 -125.5 -23.5t-37.5 -89.5v-506q0 -65 37.5 -88.5t125.5 -23.5v-371h-917z" />
<glyph unicode="J" horiz-adv-x="1509" d="M61 438q0 88 26 156t67 113t95 67.5t113 22.5q70 0 119 -20.5t81 -54.5t46.5 -77t14.5 -88q0 -49 -16.5 -90t-44 -70.5t-66.5 -47t-82 -17.5q-52 0 -87.5 13t-60 34.5t-41 48.5t-26.5 53q2 -41 15 -80t41 -68.5t74 -47t115 -17.5q80 0 132.5 21.5t83 57.5t43 82t12.5 95 v477q0 54 -35 77.5t-141 23.5v371h929v-371q-88 0 -125.5 -23.5t-37.5 -89.5v-463q0 -86 -27 -186t-98.5 -184t-196.5 -140.5t-321 -56.5q-185 0 -302.5 51t-183 126t-90.5 158t-25 144z" />
<glyph unicode="K" horiz-adv-x="1892" d="M41 0v371q88 0 126 23.5t38 88.5v506q0 66 -38 89.5t-126 23.5v371h860v-371q-37 0 -58.5 -6t-32.5 -18.5t-13 -31t-2 -45.5v-143l198 123q37 20 48.5 41.5t6 39t-26 29t-46.5 11.5v371h807v-371q-64 0 -112 -13.5t-107 -48.5l-207 -122l336 -435q18 -26 35.5 -46.5 t38 -35t48 -22.5t68.5 -8v-371h-907v371q43 0 62.5 12t24.5 29.5t-1 34t-12 24.5l-144 180l-110 -67v-113q0 -27 2 -45t13 -30.5t32.5 -18.5t58.5 -6v-371h-860z" />
<glyph unicode="L" horiz-adv-x="1528" d="M41 0v371q88 0 126 23.5t38 88.5v506q0 66 -38 89.5t-126 23.5v371h917v-371q-88 0 -125.5 -23.5t-37.5 -89.5v-618h200q41 0 69 8t44 33.5t22.5 71.5t6.5 122h350v-606h-1446z" />
<glyph unicode="M" horiz-adv-x="2404" d="M41 0v371q88 0 126 23.5t38 88.5v506q0 66 -38 89.5t-126 23.5v371h952l230 -691l200 691h940v-371q-88 0 -125.5 -23.5t-37.5 -89.5v-506q0 -65 37.5 -88.5t125.5 -23.5v-371h-886v371q88 0 115.5 23.5t27.5 88.5v574l-342 -1057h-385l-348 1001v-530q0 -33 6 -52.5 t21.5 -30.5t44 -14t71.5 -3v-371h-647z" />
<glyph unicode="N" horiz-adv-x="1851" d="M41 0v371q88 0 126 23.5t38 88.5v506q0 66 -38 89.5t-126 23.5v371h786l500 -783v299q0 66 -27.5 89.5t-115.5 23.5v371h647v-371q-88 0 -115.5 -29t-27.5 -84v-989h-601l-522 817v-346q0 -65 38 -82.5t126 -17.5v-371h-688z" />
<glyph unicode="O" horiz-adv-x="1843" d="M51 735q0 193 63.5 338.5t179.5 243.5t275.5 147t352.5 49q192 0 352 -49t275.5 -147t179 -243.5t63.5 -338.5q0 -192 -63.5 -337.5t-179 -244t-275.5 -147.5t-352 -49q-193 0 -352.5 49t-275.5 147.5t-179.5 244t-63.5 337.5zM723 735q0 -121 9 -202.5t31.5 -132 t60.5 -73t98 -22.5q57 0 96 22.5t61.5 73t31.5 132t9 202.5q0 119 -9 202t-31.5 133t-61.5 72.5t-96 22.5q-60 0 -98 -22.5t-60.5 -72.5t-31.5 -133t-9 -202z" />
<glyph unicode="P" horiz-adv-x="1661" d="M41 0v371q88 0 126 23.5t38 88.5v506q0 66 -38 89.5t-126 23.5v371h1079q148 0 248 -35t160.5 -97.5t86 -151.5t25.5 -196q0 -108 -25.5 -191t-86 -141.5t-160.5 -88t-248 -29.5h-325v-60q0 -53 26.5 -82.5t96.5 -29.5h102v-371h-979zM795 780h108q84 0 116 44t32 116 q0 68 -32 115t-116 47h-108v-322z" />
<glyph unicode="Q" horiz-adv-x="1882" d="M51 735q0 193 63.5 338.5t179.5 243.5t275.5 147t352.5 49q192 0 352 -49t275.5 -147t179 -243.5t63.5 -338.5q0 -186 -64.5 -337.5t-199.5 -262.5q16 -20 45 -35.5t63 -15.5q52 0 79.5 22.5t40.5 55.5t16.5 70.5t5.5 66.5h94q0 -262 -78 -389t-244 -127 q-114 0 -189 55.5t-128 157.5q-80 -19 -146.5 -29t-164.5 -10q-193 0 -352.5 49t-275.5 147.5t-179.5 244t-63.5 337.5zM723 735q0 -67 2 -121.5t8 -99.5q31 29 79 52.5t116 23.5q51 0 97 -12.5t87 -32.5q4 41 6 88t2 102q0 119 -9 202t-31.5 133t-61.5 72.5t-96 22.5 q-60 0 -98 -22.5t-60.5 -72.5t-31.5 -133t-9 -202zM784 397q0 -47 42 -69.5t96 -22.5q102 0 145 70q-31 47 -79 75.5t-97 28.5q-60 0 -83.5 -27.5t-23.5 -54.5z" />
<glyph unicode="R" horiz-adv-x="1792" d="M41 371q88 0 126 23.5t38 88.5v506q0 66 -38 89.5t-126 23.5v371h1059q147 0 247.5 -29t161 -83t86 -129t25.5 -167q0 -168 -81 -268.5t-259 -108.5v-12q86 -6 142.5 -32t89 -67.5t46 -100t13.5 -132.5v-53q0 -25 13 -43.5t40 -18.5q29 0 41 18.5t12 43.5v254h115v-254 q0 -72 -21.5 -132.5t-70.5 -105.5t-129 -69.5t-197 -24.5t-191.5 25.5t-116.5 70.5t-58.5 104.5t-16.5 125.5v77q0 80 -9 129.5t-29.5 77t-53.5 36.5t-80 9h-24v-143q0 -53 29.5 -76.5t105.5 -23.5v-371h-889v371zM795 791h88q84 0 115.5 40.5t31.5 112.5q0 84 -31.5 121 t-115.5 37h-88v-311z" />
<glyph unicode="S" horiz-adv-x="1503" d="M51 1044q0 109 47 193t126 141.5t182.5 87t218.5 29.5q159 0 273 -37t177 -78v93h330v-535h-330q-8 51 -35.5 95t-67.5 76t-89 49.5t-101 17.5q-63 0 -102 -24t-39 -67q0 -41 35 -66.5t92 -44t130 -35.5t148.5 -42t148.5 -60.5t130 -91t92 -135.5t35 -192 q0 -119 -51 -203t-137 -138t-198 -79t-232 -25q-117 0 -223.5 27t-217.5 88v-88h-330v545h330q29 -117 116 -184.5t196 -67.5q73 0 109 27.5t36 62.5q0 55 -59.5 85t-147.5 54l-192 52q-105 30 -193 85.5t-147.5 146.5t-59.5 238z" />
<glyph unicode="T" horiz-adv-x="1655" d="M20 887v586h1614v-586h-329q0 67 -3.5 116.5t-15.5 80t-36.5 45t-65.5 14.5h-62v-660q0 -65 38 -88.5t126 -23.5v-371h-917v371q88 0 125.5 23.5t37.5 88.5v660h-61q-41 0 -65.5 -14.5t-37 -45t-15.5 -80t-3 -116.5h-330z" />
<glyph unicode="U" horiz-adv-x="1710" d="M41 1102v371h889v-371q-76 0 -105.5 -23.5t-29.5 -77.5v-462q0 -37 8 -71t27.5 -60.5t52 -42t82.5 -15.5q96 0 140 50.5t44 136.5v460q0 62 -37 83.5t-102 21.5v371h659v-371q-67 0 -103 -19.5t-36 -81.5v-477q0 -92 -23.5 -191.5t-92 -182t-195.5 -137t-336 -54.5 q-152 0 -261.5 27.5t-185.5 72.5t-121 102.5t-69.5 119t-32.5 120t-8 107.5v481q0 66 -38 89.5t-126 23.5z" />
<glyph unicode="V" horiz-adv-x="1544" d="M0 1102v371h868v-371q-121 0 -121 -66q0 -16 7 -35l155 -485h9l159 485q7 19 7 35q0 66 -121 66v371h581v-371q-43 0 -69.5 -6t-44 -20.5t-27.5 -35t-23 -51.5l-387 -989h-444l-385 989q-12 31 -22.5 51.5t-28 35t-44 20.5t-69.5 6z" />
<glyph unicode="W" horiz-adv-x="2398" d="M20 1102v371h836v-371q-53 0 -75 -26q-13 -15 -14 -38q0 -17 7 -37l146 -485h8l131 414l-21 59q-22 60 -41.5 86.5t-66.5 26.5v371h792v-371q-75 0 -92 -26q-9 -13 -10 -33q0 -18 8 -42l125 -485h8l150 485q5 18 5 32q0 69 -120 69v371h582v-371q-43 0 -71 -6t-44 -19.5 t-26.5 -35t-22.5 -52.5l-367 -989h-444l-199 535l-190 -535h-445l-385 989q-12 31 -22 51.5t-27.5 35t-44.5 20.5t-70 6z" />
<glyph unicode="X" horiz-adv-x="1569" d="M31 0v371q63 0 114.5 25.5t110.5 86.5l240 244l-263 262q-47 45 -94 79t-100 34v371h817v-371q-43 0 -62.5 -9.5t-21.5 -22.5t10.5 -31.5t30.5 -37.5l88 -88l90 88q19 19 31 37.5t9 31.5t-24.5 22.5t-68.5 9.5v371h582v-371q-64 0 -115 -25.5t-111 -87.5l-233 -235 l272 -271q47 -45 99.5 -78.5t105.5 -33.5v-371h-838v371q43 0 64.5 9t25 22.5t-7 32t-28.5 36.5l-97 94l-98 -94q-18 -18 -30.5 -36.5t-9.5 -32t24.5 -22.5t68.5 -9v-371h-581z" />
<glyph unicode="Y" horiz-adv-x="1575" d="M20 1102v371h879v-371q-88 0 -117 -29q-13 -14 -13 -32t15 -40l138 -192h8l137 192q20 22 20 41q0 15 -13 29q-27 31 -122 31v371h602v-371q-30 0 -52.5 -6t-42 -19.5t-39.5 -34.5l-50 -53l-287 -352v-154q0 -65 38 -88.5t126 -23.5v-371h-917v371q88 0 126 23.5t38 88.5 v154l-289 352q-23 23 -39 43.5t-34.5 35.5t-44.5 24.5t-67 9.5z" />
<glyph unicode="Z" horiz-adv-x="1491" d="M41 0v330l696 813h-200q-41 0 -66 -14.5t-37 -45t-15 -80t-3 -116.5h-350v586h1384v-330l-696 -813h225q41 0 65.5 14t37 45t15.5 80t3 117h350v-586h-1409z" />
<glyph unicode="[" horiz-adv-x="936" d="M123 -266v1739h711v-283h-183v-1174h183v-282h-711z" />
<glyph unicode="\" horiz-adv-x="922" d="M102 1473h289l428 -1473h-289z" />
<glyph unicode="]" horiz-adv-x="936" d="M102 16h183v1174h-183v283h711v-1739h-711v282z" />
<glyph unicode="^" d="M123 860l373 613h444l371 -613h-344l-250 291l-252 -291h-342z" />
<glyph unicode="_" horiz-adv-x="1229" d="M0 -102h1229v-326h-1229v326z" />
<glyph unicode="`" horiz-adv-x="1024" d="M35 1548h403l209 -309h-246z" />
<glyph unicode="a" horiz-adv-x="1530" d="M39 250q0 96 54 151.5t136 88t178.5 53t178.5 49.5t136 75t54 130q0 75 -47 120.5t-154 45.5q-51 0 -87.5 -7.5t-62.5 -17.5t-43 -23l-30 -22l10 -10q19 10 41.5 20t57.5 10q59 0 102 -38.5t43 -122.5q0 -80 -65.5 -128.5t-175.5 -48.5q-105 0 -167.5 60.5t-62.5 171.5 q0 61 34 121.5t105.5 108.5t182 79t266.5 31q186 0 304 -35t183.5 -90t90 -125t24.5 -141v-391q0 -91 6 -123.5t45 -32.5q31 0 43.5 29.5t12.5 101.5v125h114v-127q0 -90 -15 -159.5t-57 -119t-114 -75t-184 -25.5q-101 0 -167.5 21.5t-105.5 53.5t-55.5 66.5t-16.5 61.5 h-16q-6 -41 -34.5 -78t-79 -65.5t-121 -46t-160.5 -17.5q-86 0 -156.5 16.5t-120 52t-77 92t-27.5 134.5zM582 328q0 -33 18 -59.5t70 -26.5q47 0 76.5 36.5t29.5 102.5v149q-22 -32 -55 -52l-64 -38q-30 -18 -52.5 -43.5t-22.5 -68.5z" />
<glyph unicode="b" horiz-adv-x="1636" d="M31 1102v371h692v-381v-183h16q15 43 41.5 84t69.5 73t104.5 51.5t143.5 19.5q229 0 358 -148.5t129 -435.5t-135 -436.5t-371 -149.5q-84 0 -147.5 15.5t-113.5 40t-91 56.5l-80 64h-14l-35 -143h-424v989q0 58 -37 85.5t-84 27.5h-22zM723 326q16 -27 62 -42.5 t85 -15.5q45 0 73 22.5t44.5 60.5t22.5 88t6 104q0 53 -6 101t-22.5 84t-45.5 56.5t-74 20.5t-72.5 -20.5t-44 -56.5t-22.5 -84t-6 -101v-217z" />
<glyph unicode="c" horiz-adv-x="1339" d="M41 553q0 147 50 258t140.5 185.5t214 112.5t271.5 38q157 0 265 -39t174.5 -97.5t95 -126t28.5 -126.5q0 -47 -13.5 -92t-44 -82t-77.5 -59.5t-115 -22.5q-65 0 -106 18.5t-63.5 46t-32 58t-9.5 57.5q0 61 29 97t67 50q-22 17 -44.5 32.5t-82.5 15.5q-86 0 -132 -73 t-46 -243t47.5 -241.5t145.5 -71.5q28 0 57 9t52.5 26.5t39 45t17.5 64.5h323q-32 -223 -179.5 -329.5t-420.5 -106.5q-137 0 -256 36t-207 109.5t-138 185t-50 265.5z" />
<glyph unicode="d" horiz-adv-x="1634" d="M29 551q0 287 135 426t371 139q63 0 113 -10t91 -26q41 -14 78 -34l74 -38v36q0 54 -18.5 76.5t-71.5 22.5h-53v330h692v-1020q0 -41 22.5 -61.5t63.5 -20.5h57v-371h-672v182h-16q-16 -43 -47 -82t-76 -68.5t-106.5 -47t-139.5 -17.5q-245 0 -371 148.5t-126 435.5z M598 541q0 -54 6 -102t22.5 -84t44 -56t72.5 -20t74 19t45.5 53t22.5 81t6 100v226q-25 24 -67 40.5t-81 16.5q-45 0 -72.5 -22.5t-44 -60.5t-22.5 -88t-6 -103z" />
<glyph unicode="e" horiz-adv-x="1446" d="M41 553q0 147 50 258t140.5 185.5t214 112.5t271.5 38q182 0 313 -48t214 -134t122 -207q37 -115 37 -255v-14h-791q4 -149 56.5 -205.5t150.5 -56.5q33 0 64.5 9.5t58.5 31t46.5 57t25.5 89.5h364q-20 -129 -73.5 -216t-137.5 -140.5t-195.5 -77t-248.5 -23.5 q-141 0 -265 36t-217.5 109.5t-146.5 185t-53 265.5zM612 664h293q-6 98 -42 155.5t-103 57.5q-70 0 -103.5 -49.5t-44.5 -163.5z" />
<glyph unicode="f" horiz-adv-x="1087" d="M41 731v371h162q-17 8 -36.5 23.5t-35.5 39t-27.5 54t-11.5 69.5q0 70 40 121t111.5 84t172 48t223.5 15q143 0 240.5 -17t158 -49t86 -77t25.5 -100q0 -33 -10.5 -63.5t-35 -55.5t-64.5 -40t-97 -15q-104 0 -153.5 49t-49.5 121q0 41 22.5 68.5t49.5 37.5l-12 8 q-54 0 -87.5 -14t-52 -33.5t-24.5 -44t-6 -47.5q0 -33 13 -65.5t44 -58t82 -42t127 -16.5h111v-371h-226v-252q0 -67 33 -87.5t84 -20.5h68v-371h-883v371h39q53 0 78.5 33.5t25.5 72.5v254h-184z" />
<glyph unicode="g" horiz-adv-x="1591" d="M45 -291q0 72 46 118t99 73q-65 39 -88.5 87t-23.5 105q0 68 49 130.5t141 121.5q-90 59 -138 144t-48 202q0 113 47 198t135 142t210 87t274 30q163 0 294.5 -35t223.5 -106q18 24 49 47q26 18 66 33.5t98 15.5h92v-371h-66q-43 0 -65.5 -23.5t-26.5 -45.5 q-35 -211 -204 -322t-461 -111q-164 0 -297 35q-21 -14 -21 -35q0 -39 46 -55t122 -22q60 -4 132 -4h41q24 1 49 1q73 0 150 -3q101 -5 198.5 -19t173 -50t121.5 -98.5t46 -160.5q0 -170 -195.5 -260t-565.5 -90q-134 0 -261 4t-225 26.5t-157.5 71.5t-59.5 139zM432 -211 q0 -72 78 -94.5t205 -22.5q170 0 248.5 20.5t78.5 57.5q0 19 -22.5 29t-59 16t-80.5 7t-87 1q-107 0 -194 5.5t-157 15.5q-10 -17 -10 -35zM608 690q0 -104 29 -160.5t111 -56.5q83 0 112 56.5t29 160.5q0 103 -29 157t-112 54q-82 0 -111 -54t-29 -157z" />
<glyph unicode="h" horiz-adv-x="1716" d="M82 1102v371h692v-371q0 -19 -12 -66t-45 -94l20 -10q54 98 145 156.5t246 58.5q132 0 214.5 -39t129 -98.5t63.5 -129t17 -130.5v-281q0 -53 18.5 -75.5t71.5 -22.5h54v-371h-692v639q0 39 -9.5 62.5t-24 36t-32.5 16.5t-35 4q-65 0 -97 -38t-32 -108v-143 q0 -53 18.5 -75.5t71.5 -22.5h74v-371h-856v371h59q41 0 62.5 26.5t21.5 63.5l-2 528q0 58 -36.5 85.5t-84.5 27.5h-20z" />
<glyph unicode="i" horiz-adv-x="944" d="M82 0v371h39q53 0 78.5 33.5t25.5 72.5v141q0 58 -36.5 85.5t-84.5 27.5h-22v371h698v-623q0 -67 33 -87.5t84 -20.5h27v-371h-842zM209 1348q0 86 65.5 147t186.5 61q123 0 189.5 -61t66.5 -147q0 -88 -66.5 -148.5t-189.5 -60.5q-121 0 -186.5 60.5t-65.5 148.5z" />
<glyph unicode="j" horiz-adv-x="862" d="M-233 -250q0 86 54 147.5t159 61.5q47 0 82.5 -16.5t59 -41t35 -55t11.5 -59.5q0 -53 -16.5 -82t-38.5 -51l14 -16q49 32 63.5 77t14.5 99v804q0 58 -37 85.5t-84 27.5h-43v371h719v-1131q0 -141 -35 -239.5t-104.5 -158.5t-171 -87t-236.5 -27q-123 0 -208 24.5 t-138 64.5t-76.5 92.5t-23.5 109.5zM188 1348q0 86 65.5 147t186.5 61q123 0 189.5 -61t66.5 -147q0 -88 -66.5 -148.5t-189.5 -60.5q-121 0 -186.5 60.5t-65.5 148.5z" />
<glyph unicode="k" horiz-adv-x="1753" d="M82 0v371h39q53 0 78.5 33.5t25.5 72.5v512q0 58 -36.5 85.5t-84.5 27.5h-22v371h698v-861l135 66q35 16 45.5 27.5t10.5 21.5q0 25 -53 25h-46v350h760v-350h-61q-55 0 -112.5 -6.5t-106.5 -28.5l-45 -23l235 -252q43 -47 81 -59t110 -12v-371h-867v371h52q36 0 48.5 10 t12.5 27q0 12 -16.5 32.5t-61.5 61.5l-121 -60v-442h-698z" />
<glyph unicode="l" horiz-adv-x="944" d="M82 0v371h39q53 0 78.5 33.5t25.5 72.5v512q0 58 -36.5 85.5t-84.5 27.5h-22v371h698v-994q0 -67 33 -87.5t84 -20.5h27v-371h-842z" />
<glyph unicode="m" horiz-adv-x="2454" d="M82 0v371h59q41 0 62.5 26.5t21.5 63.5v190q0 47 -27.5 63.5t-62.5 16.5h-53v371h594l-21 -275h17q22 154 124.5 237t297.5 83q73 0 136.5 -19.5t113 -59.5t78 -100.5t32.5 -140.5h14q9 76 44.5 136.5t90 100.5t120 61.5t137.5 21.5q133 0 217 -39t131 -98.5t64.5 -129 t17.5 -130.5v-281q0 -53 18.5 -75.5t71.5 -22.5h53v-371h-692v639q0 39 -8.5 62.5t-21.5 36t-30.5 16.5t-33.5 4q-66 0 -90.5 -38t-24.5 -108v-143q0 -53 18.5 -75.5t71.5 -22.5h33v-371h-672v639q0 39 -8 62.5t-21.5 36t-31 16.5t-33.5 4q-66 0 -90.5 -38t-24.5 -108v-143 q0 -53 18.5 -75.5t71.5 -22.5h33v-371h-815z" />
<glyph unicode="n" horiz-adv-x="1716" d="M82 0v371h59q41 0 62.5 26.5t21.5 63.5v190q0 47 -27.5 63.5t-62.5 16.5h-53v371h594l-21 -275h17q22 154 135 237t307 83q137 0 223 -39t133.5 -98.5t64.5 -129t17 -130.5v-281q0 -53 18.5 -75.5t71.5 -22.5h54v-371h-692v639q0 39 -9.5 62.5t-24 36t-32.5 16.5t-35 4 q-65 0 -97 -38t-32 -108v-143q0 -53 18.5 -75.5t71.5 -22.5h54v-371h-836z" />
<glyph unicode="o" horiz-adv-x="1524" d="M41 553q0 147 51 258t145.5 185.5t227.5 112.5t297 38t297 -38t227 -112.5t145.5 -185.5t51.5 -258q0 -145 -51.5 -257t-145.5 -187.5t-227 -113.5t-297 -38t-297 38t-227.5 113.5t-145.5 187.5t-51 257zM610 553q0 -84 7.5 -142.5t24.5 -94t46 -52t74 -16.5t73.5 16.5 t46 52t24.5 94t7 142.5q0 168 -31.5 235.5t-119.5 67.5q-45 0 -74 -15.5t-46 -51t-24.5 -94t-7.5 -142.5z" />
<glyph unicode="p" horiz-adv-x="1647" d="M51 731v371h649v-205h17q37 104 131 172t258 68q235 0 367.5 -148.5t132.5 -435.5t-135.5 -436.5t-370.5 -149.5q-64 0 -114 6.5t-91 18.5t-78 28l-74 35v-98q0 -53 18.5 -75.5t72.5 -22.5h59v-371h-842v371h60q41 0 62.5 26.5t21.5 63.5v702q0 47 -28 63.5t-63 16.5h-53 zM743 305q17 -26 63 -41.5t85 -15.5q45 0 72.5 25.5t44 67.5t22.5 95t6 107q0 53 -6 101t-22.5 84t-44 56.5t-72.5 20.5t-74 -19.5t-45 -53.5t-22.5 -81t-6.5 -100v-246z" />
<glyph unicode="q" horiz-adv-x="1657" d="M41 553q0 287 132 435.5t368 148.5q168 0 260 -69t129 -171h16v205h649v-371h-53q-35 0 -62.5 -16.5t-27.5 -63.5v-702q0 -37 21.5 -63.5t62.5 -26.5h59v-371h-841v371h59q53 0 71.5 22.5t18.5 75.5v98l-74 -35q-36 -16 -77 -28t-91.5 -18.5t-113.5 -6.5 q-236 0 -371 149.5t-135 436.5zM610 543q0 -54 6.5 -107t22.5 -95t44 -67.5t73 -25.5q39 0 85 15.5t62 41.5v246q0 53 -6 100t-22.5 81t-45 53.5t-73.5 19.5t-73 -20.5t-44 -56.5t-22.5 -84t-6.5 -101z" />
<glyph unicode="r" horiz-adv-x="1311" d="M82 0v371h59q41 0 62.5 26.5t21.5 63.5v190q0 47 -27.5 63.5t-62.5 16.5h-53v371h594l-17 -275h17q35 158 116.5 239t211.5 81q77 0 132.5 -24.5t89.5 -65.5t49 -94.5t15 -110.5q0 -47 -14 -93t-45 -83t-80 -59.5t-121 -22.5q-100 0 -157.5 51t-57.5 123q0 35 8 59.5 t16.5 40t11.5 22.5t-7 7q-21 0 -45.5 -48t-24.5 -151v-229q0 -53 18.5 -75.5t71.5 -22.5h60v-371h-842z" />
<glyph unicode="s" horiz-adv-x="1305" d="M70 791q0 81 36.5 148t104.5 113t160 70.5t202 24.5q123 0 221.5 -27.5t147.5 -60.5l10 71h265v-393h-275q-29 72 -90 114t-127 42q-45 0 -71.5 -16.5t-26.5 -49.5q0 -41 46 -61.5t115.5 -36.5t150.5 -38.5t150.5 -64.5t115.5 -113t46 -187q0 -90 -40 -157t-109.5 -110 t-163.5 -64.5t-203 -21.5q-106 0 -200.5 20.5t-180.5 69.5l-10 -69h-264v401h274q39 -80 98.5 -124t131.5 -44q55 0 78.5 20.5t23.5 45.5q0 41 -46 63.5t-113 40.5l-149 39q-81 21 -148.5 62t-113.5 110.5t-46 182.5z" />
<glyph unicode="t" horiz-adv-x="1071" d="M27 731v330q75 0 139.5 32.5t111 90t72 131.5t25.5 158h366v-371h299v-371h-299v-307q0 -66 18.5 -108t76.5 -42q32 0 51.5 12.5t31 33t14.5 47t3 57.5v149h115v-161q0 -97 -20.5 -181t-70 -145t-134.5 -97t-214 -36q-143 0 -228 35t-129 96t-57.5 145t-13.5 183v319 h-157z" />
<glyph unicode="u" horiz-adv-x="1675" d="M14 731v371h699v-631q0 -39 9 -62.5t23.5 -36t33 -16.5t34.5 -4q66 0 97.5 38t31.5 108v135q0 53 -18.5 75.5t-71.5 22.5h-59v371h698v-651q0 -48 27.5 -64t62.5 -16h53v-371h-594v274h-16q-23 -153 -125 -232t-297 -79q-137 0 -223 39t-133 98.5t-64.5 129t-17.5 130.5 v273q0 53 -18.5 75.5t-71.5 22.5h-60z" />
<glyph unicode="v" horiz-adv-x="1425" d="M0 731v371h803v-371q-64 0 -82.5 -18.5t-3.5 -57.5l108 -307h15l114 307q15 37 -3.5 56.5t-82.5 19.5v371h557v-371q-73 0 -103 -19.5t-50 -66.5l-268 -645h-584l-268 645q-21 45 -48.5 65.5t-103.5 20.5z" />
<glyph unicode="w" horiz-adv-x="2101" d="M20 731v371h742v-371q-47 0 -61.5 -17.5t-4.5 -58.5l88 -307h15l94 307q5 16 5 29q0 47 -71 47v371h680v-371q-47 0 -61 -17.5t-4 -58.5l88 -307h14l94 307q5 17 5 29q0 47 -70 47v371h508v-371q-43 0 -75 -19.5t-50 -66.5l-248 -645h-543l-123 317l-120 -317h-523 l-247 645q-19 47 -45.5 66.5t-86.5 19.5z" />
<glyph unicode="x" horiz-adv-x="1497" d="M55 0v350q23 0 53.5 13.5t63.5 32.5q34 18 66 40l59 39l141 92l-135 90q-41 29 -103.5 62t-133.5 33v350h819v-350q-23 0 -39.5 -10.5t-16.5 -26.5q0 -17 11.5 -30t31.5 -30l15 -10l39 27l36 27q21 16 21 32q0 21 -33 21v350h492v-350q-27 0 -60.5 -12.5t-67.5 -30 t-68 -38t-60 -38.5l-139 -92l149 -97q21 -12 44.5 -28.5t53 -30.5t68.5 -24.5t90 -10.5v-350h-850v350q27 0 45.5 11.5t18.5 29.5q0 15 -13.5 30t-29.5 25l-23 15l-20 -15q-21 -12 -47.5 -34.5t-26.5 -38.5q0 -23 31 -23v-350h-482z" />
<glyph unicode="y" horiz-adv-x="1466" d="M-14 -240q0 121 74.5 190.5t185.5 69.5q65 0 109 -19t72 -49t39 -66t11 -68q0 -72 -35.5 -110t-85.5 -48q4 -4 13 -6q12 -6 49 -6q35 0 62.5 17.5t50 43t39 55t26.5 54.5l2 6l-426 821q-10 23 -21.5 39t-28 26.5t-41 15.5t-61.5 5v371h803v-371q-63 0 -82.5 -18.5 t-3.5 -57.5l121 -258l117 258q16 35 -3.5 55.5t-82.5 20.5v371h557v-371q-74 0 -103.5 -20.5t-50.5 -65.5l-340 -727l-70 -158q-36 -84 -94.5 -155.5t-150.5 -118.5t-240 -47q-104 0 -182 26.5t-129 71.5t-75.5 103.5t-24.5 119.5z" />
<glyph unicode="z" horiz-adv-x="1317" d="M51 0v287l533 528h-138q-59 0 -78.5 -20.5t-19.5 -77.5v-51h-287v436h1199v-287l-529 -528h150q59 0 78.5 22.5t19.5 71.5v57h287v-438h-1215z" />
<glyph unicode="{" horiz-adv-x="1001" d="M41 487v240q57 0 94 14.5t57.5 48t27.5 87t7 133.5v96q0 100 33 176t115 127t219 77.5t346 26.5v-286q-66 0 -106.5 -12.5t-63 -40t-31 -73.5t-8.5 -118v-57q0 -66 -8 -115t-33.5 -86t-76 -64.5t-132.5 -46.5v-16q82 -18 132.5 -46t76 -64.5t33.5 -87t8 -113.5v-58 q0 -71 8.5 -118.5t31 -75t63 -38.5t106.5 -11v-287q-209 0 -346 26.5t-219 78t-115 127t-33 175.5v97q0 80 -6 134t-25.5 88t-56.5 48t-98 14z" />
<glyph unicode="|" horiz-adv-x="717" d="M205 -483v2048h307v-2048h-307z" />
<glyph unicode="}" horiz-adv-x="1001" d="M61 -14q66 0 107 11t63.5 38.5t30.5 75t8 118.5v58q0 63 8.5 113.5t34 87t74.5 64.5t133 46v16q-84 19 -133 46.5t-74.5 64.5t-34 86t-8.5 115v57q0 72 -8 118t-30.5 73.5t-63.5 40t-107 12.5v286q209 0 346.5 -26.5t219.5 -77.5t114.5 -127t32.5 -176v-96 q0 -80 7 -133.5t27.5 -87t56.5 -48t96 -14.5v-240q-62 0 -99 -14t-56.5 -48t-25.5 -88t-6 -134v-97q0 -100 -32.5 -175.5t-114.5 -127t-219.5 -78t-346.5 -26.5v287z" />
<glyph unicode="~" d="M154 496q10 79 34.5 157t67.5 140.5t105.5 100.5t148.5 38q65 0 116.5 -16.5t95.5 -35.5l84 -34q40 -17 83 -17q39 0 74.5 26t46.5 77h270q-10 -80 -34.5 -158t-67.5 -140.5t-106.5 -100t-149.5 -37.5q-66 0 -117 16t-95 34l-84 36q-40 16 -83 16q-39 0 -74 -25.5 t-45 -76.5h-270z" />
<glyph unicode="&#xa1;" horiz-adv-x="754" d="M123 211q0 20 2 41.5t6 40.5l117 645h262l113 -645q4 -17 6 -40.5t2 -41.5q0 -53 -20.5 -99t-54.5 -80t-81 -54.5t-98 -20.5q-53 0 -99.5 20.5t-80 54.5t-54 80t-20.5 99zM123 1260q0 51 20.5 98t54 81t80 54t99.5 20q51 0 98 -20t81 -54t54.5 -81t20.5 -98 q0 -54 -20.5 -100t-54.5 -79.5t-81 -54t-98 -20.5q-53 0 -99.5 20.5t-80 54t-54 79.5t-20.5 100z" />
<glyph unicode="&#xa2;" horiz-adv-x="1339" d="M41 743q0 115 35 205t97.5 156.5t149.5 106.5t191 57v184h203v-176q121 -10 205 -47t135 -87t73.5 -107.5t22.5 -106.5q0 -41 -12.5 -82t-39 -74t-68.5 -53.5t-103 -20.5q-60 0 -96.5 16.5t-57 41t-29 52.5t-8.5 52q0 55 27 88t61 45q-20 15 -40.5 28t-73.5 13 q-78 0 -119 -64.5t-41 -217.5q0 -154 43 -217.5t129 -63.5q53 0 99 32t50 97h291q-26 -182 -136.5 -276.5t-311.5 -110.5v-213h-203v215q-102 14 -189 53t-149.5 104.5t-98.5 158t-36 212.5z" />
<glyph unicode="&#xa3;" horiz-adv-x="1475" d="M29 207q51 16 104 46t97 72t72 93q26 48 26 102v8q0 7 -1 13t-1 12h-285v203h154q-37 47 -65 110.5t-28 157.5q0 109 46.5 196t123 147t179 93t217.5 33q80 0 136 -10t99 -25.5t77 -36t64 -41.5v93h310v-515h-310q-4 46 -19 85.5t-41 70.5t-64.5 48.5t-88.5 17.5 q-92 0 -133 -49.5t-41 -110.5q0 -29 11.5 -57.5t27 -61.5t30.5 -68.5t24 -76.5h272v-203h-305q-29 -53 -89.5 -115.5t-168.5 -126.5l12 -16q51 35 92 56.5t74 32.5t60.5 15t54.5 4q49 0 88 -8t71.5 -19t62.5 -19.5t60 -8.5q76 0 119 53.5t43 143.5h197q0 -191 -33 -303.5 t-92.5 -171t-142.5 -74.5t-181 -16q-74 0 -133 12t-116.5 25.5t-122 25.5t-150.5 12q-53 0 -104.5 -12t-94.5 -27q-51 -16 -96 -36z" />
<glyph unicode="&#xa4;" horiz-adv-x="1163" d="M98 406l154 153q-47 84 -47 186q0 50 13 97t36 88l-156 155l144 144l153 -156q41 23 88 36t99 13q49 0 96 -13t88 -36l156 156l143 -144l-156 -155q23 -41 36 -88t13 -97q0 -51 -13 -98t-36 -88l156 -153l-143 -144l-156 156q-41 -23 -88 -36t-96 -13q-103 0 -187 47 l-153 -154zM434 745q0 -61 43 -104t105 -43q59 0 103 43t44 104q0 60 -44 104t-103 44q-62 0 -105 -44t-43 -104z" />
<glyph unicode="&#xa5;" horiz-adv-x="1475" d="M41 1102v371h795v-371q-78 0 -104 -29q-13 -14 -13 -32t14 -40l125 -192h8l127 192q19 22 19 41q0 15 -12 29q-25 31 -111 31v371h545v-371q-29 0 -48.5 -6t-37 -19.5t-36.5 -34.5l-44 -53l-8 -10h135v-203h-287l-61 -84h348v-203h-389v-6q0 -65 36.5 -88.5t114.5 -23.5 v-371h-840v371q78 0 115 23.5t37 88.5v6h-389v203h348l-63 84h-285v203h133l-6 10q-21 23 -35 43.5t-30.5 35.5t-40 24.5t-60.5 9.5z" />
<glyph unicode="&#xa6;" horiz-adv-x="717" d="M205 -350v758h307v-758h-307zM205 674v758h307v-758h-307z" />
<glyph unicode="&#xa7;" horiz-adv-x="1118" d="M102 207q0 45 15.5 75.5t40 50t54.5 29t58 9.5q78 0 123 -36t45 -79q0 -47 -29.5 -66.5t-70.5 -31.5q33 -25 81 -36t91 -11q86 0 130 31.5t44 72.5q0 43 -41 78t-103 67l-134 67q-72 34 -134.5 75t-103.5 92t-41 119q0 88 51 147.5t146 97.5q-80 54 -136.5 116.5 t-56.5 148.5q0 75 31 130.5t87 90.5t134 52t170 17q207 0 315.5 -75.5t108.5 -192.5q0 -45 -15.5 -76.5t-40 -51t-54 -28t-58.5 -8.5q-78 0 -123 36t-45 79q0 47 29.5 66.5t70.5 31.5q-32 23 -65 35t-78 12q-86 0 -121 -31.5t-35 -72.5q0 -43 40 -78t100.5 -67.5t130 -66.5 t130 -75t100.5 -92t40 -119q0 -88 -51 -147.5t-144 -97.5q86 -52 146.5 -115.5t60.5 -149.5q0 -77 -33.5 -131.5t-92 -90.5t-139.5 -52t-173 -16q-104 0 -188 19t-143.5 55t-91.5 85t-32 109zM408 770q0 -29 18 -53.5t49 -47t72 -45.5l86 -46q31 12 52.5 35.5t21.5 64.5 q0 27 -18.5 50.5t-50.5 47t-73 46.5l-86 48q-30 -14 -50.5 -39.5t-20.5 -60.5z" />
<glyph unicode="&#xa8;" horiz-adv-x="1024" d="M172 1403q0 27 11.5 53.5t32 46t47 31.5t54.5 12q60 0 101 -42t41 -101q0 -64 -40 -103.5t-102 -39.5q-59 0 -102 41.5t-43 101.5zM563 1403q0 55 42 99t102 44q59 0 101 -42t42 -101q0 -64 -41 -103.5t-102 -39.5q-60 0 -102 41.5t-42 101.5z" />
<glyph unicode="&#xa9;" horiz-adv-x="1860" d="M154 737q0 160 61 301.5t166.5 247t247 166.5t301.5 61t301 -61t246.5 -166.5t167 -247t61.5 -301.5q0 -159 -61.5 -300.5t-167 -247t-246.5 -167t-301 -61.5t-301.5 61.5t-247 167t-166.5 247t-61 300.5zM326 737q0 -125 47 -235.5t129 -192.5t192.5 -129t235.5 -47 t235.5 47t192.5 129t129 192.5t47 235.5t-47 235.5t-129 192.5t-192.5 129t-235.5 47t-235.5 -47t-192.5 -129t-129 -192.5t-47 -235.5zM516 733q0 113 34 194t91 132t131 74.5t152 23.5q73 0 126.5 -21.5t75.5 -39.5v49h181v-307h-191q0 73 -38 101t-85 28q-63 0 -97 -51.5 t-34 -182.5t36 -183t108 -52q47 0 88 35.5t41 113.5h190q0 -69 -22.5 -130.5t-68.5 -108t-118 -73t-170 -26.5q-88 0 -167 23.5t-137 75t-92 131t-34 194.5z" />
<glyph unicode="&#xaa;" horiz-adv-x="1208" d="M61 893q0 63 39 100t98.5 59.5t128 36t128 33t98.5 50t39 88.5q0 49 -39 69.5t-96 20.5q-35 0 -53.5 -4.5t-26.5 -8.5t-10 -10t-2 -8q0 -10 13 -14.5t28.5 -12.5t29 -22.5t13.5 -40.5q0 -53 -48.5 -86t-126.5 -33q-75 0 -119 41t-44 115q0 41 27.5 82t82.5 72.5t138 52 t194 20.5q135 0 219 -22.5t132 -59.5t65.5 -84t17.5 -96v-221q0 -60 4 -82.5t33 -22.5q23 0 31 20.5t8 67.5v43h84v-84q0 -59 -11.5 -106t-41 -80t-81.5 -50.5t-134 -17.5q-72 0 -120 14.5t-76 35t-40 44t-12 42.5h-10q-11 -56 -82.5 -98t-202.5 -42q-125 0 -200 46t-75 153 zM117 371v252h954v-252h-954zM451 944q0 -22 14 -39.5t49 -17.5t56.5 24.5t21.5 69.5v80q-19 -23 -43.5 -32t-46 -18.5t-36.5 -23.5t-15 -43z" />
<glyph unicode="&#xab;" horiz-adv-x="1028" d="M82 561q0 14 8 38t30.5 63.5t61.5 98t101 142.5h262l-61 -152q-23 -61 -35.5 -99t-16.5 -59.5t-4 -31.5q0 -18 5 -41.5t19.5 -62.5t39.5 -95l65 -143h-274q-62 84 -101 142.5t-61.5 97.5t-30.5 62.5t-8 39.5zM492 561q0 14 8 38t30.5 63.5t61.5 98t100 142.5h262 l-60 -152q-24 -61 -36 -99t-16 -59.5t-4 -31.5q0 -18 5 -41.5t19.5 -62.5t39.5 -96l65 -142h-275q-61 84 -100 142.5t-61.5 97.5t-30.5 62.5t-8 39.5z" />
<glyph unicode="&#xac;" d="M154 737v326h1106v-676h-326v350h-780z" />
<glyph unicode="&#xad;" horiz-adv-x="860" d="M82 424v395h696v-395h-696z" />
<glyph unicode="&#xae;" horiz-adv-x="1368" d="M102 932q0 121 46.5 226.5t125 184t184 124.5t226.5 46t226.5 -46t184.5 -124.5t125 -184t46 -226.5t-46 -226.5t-125 -184.5t-184.5 -125t-226.5 -46t-226.5 46t-184 125t-125 184.5t-46.5 226.5zM231 932q0 -94 36 -176t97.5 -143.5t143.5 -97.5t176 -36t176 36 t143.5 97.5t97.5 143.5t36 176t-36 176t-97.5 143.5t-143.5 97t-176 35.5t-176 -35.5t-143.5 -97t-97.5 -143.5t-36 -176zM379 778q35 0 48 9.5t13 37.5v230q0 26 -13 36.5t-48 10.5v143h393q111 0 152 -46t41 -124q0 -69 -30 -110t-95 -45v-5q65 -6 85.5 -41.5t20.5 -95.5 v-22q0 -27 21 -27q20 0 20 27v104h62v-104q0 -60 -35 -99t-119 -39q-51 0 -80 10.5t-43 29t-17 43t-3 53.5v30q0 33 -6.5 50.5t-17.5 24.5t-26.5 8t-33.5 1h-29v-49q0 -22 10 -31.5t39 -9.5v-143h-309v143zM639 963h74q30 0 41.5 17t11.5 46q0 35 -11.5 55.5t-41.5 20.5h-74 v-139z" />
<glyph unicode="&#xaf;" horiz-adv-x="1024" d="M205 1278v229h614v-229h-614z" />
<glyph unicode="&#xb0;" horiz-adv-x="674" d="M35 1188q0 63 23.5 118.5t64.5 97.5t96 65.5t119 23.5q63 0 118.5 -24.5t96.5 -65.5t64.5 -96.5t23.5 -118.5q0 -62 -23.5 -117t-65.5 -97t-97.5 -65.5t-118.5 -23.5q-64 0 -118 23.5t-95 64.5t-64.5 96t-23.5 119zM223 1188q0 -47 34 -81t81 -34q49 0 83 35t34 80 q0 49 -34 83t-83 34q-47 0 -81 -34t-34 -83z" />
<glyph unicode="&#xb1;" d="M174 0v326h1086v-326h-1086zM174 758v325h379v318h326v-318h381v-325h-381v-320h-326v320h-379z" />
<glyph unicode="&#xb2;" horiz-adv-x="1094" d="M41 1202q0 64 37 117t102.5 92t158.5 60.5t204 21.5q119 0 212 -23.5t157.5 -63.5t99.5 -95.5t35 -116.5q0 -100 -46.5 -156.5t-118 -88t-159.5 -49t-173 -41t-155.5 -61.5t-109.5 -112l12 -4q14 16 35.5 35.5t51.5 37t65.5 29t82.5 11.5q48 0 80.5 -4.5t58 -10.5t50 -10 t53.5 -4q53 0 85 16.5t32 75.5h162q0 -127 -29 -202.5t-78 -114.5t-113.5 -50.5t-136.5 -11.5q-55 0 -106 10.5t-96 22.5l-87 23q-42 10 -79 10q-33 0 -52.5 -8.5t-31.5 -18.5q-15 -10 -21 -24h-176q0 133 42 221t105.5 146.5t135.5 96.5l136 69q64 32 106 66.5t42 88.5 q0 53 -48 78.5t-120 25.5q-47 0 -81.5 -7t-69.5 -24q45 -12 76.5 -32.5t31.5 -73.5q0 -47 -47 -85t-133 -38q-30 0 -63 9t-58.5 30.5t-43 54.5t-17.5 82z" />
<glyph unicode="&#xb3;" horiz-adv-x="1147" d="M41 774q0 92 55.5 140.5t132.5 48.5q50 0 83.5 -12.5t56 -31t33 -41t10.5 -42.5q0 -58 -35 -82.5t-82 -32.5q39 -23 82 -33t102 -10q101 0 148 32.5t47 92.5q0 33 -14.5 56.5t-37 37.5t-51 20.5t-59.5 6.5h-51v145h51q72 0 106.5 33t34.5 72q0 61 -51 86.5t-117 25.5 q-73 0 -105 -14.5t-48 -28.5h6q28 0 60 -16q36 -17 36 -74q0 -53 -47 -85t-125 -32q-76 0 -134 44t-58 134q0 127 131 203t356 76q94 0 186.5 -13.5t166 -44t119.5 -81.5t46 -127q0 -191 -239 -228v-6q120 -14 195 -73.5t75 -171.5q0 -48 -31 -98t-97.5 -91t-172 -66.5 t-252.5 -25.5q-139 0 -236.5 26.5t-159 70.5t-89 99.5t-27.5 110.5z" />
<glyph unicode="&#xb4;" horiz-adv-x="1024" d="M295 1239l209 309h403l-366 -309h-246z" />
<glyph unicode="&#xb5;" horiz-adv-x="1567" d="M61 657v310h617v-553q0 -37 9 -58.5t22.5 -34t30 -16.5t32.5 -4q62 0 91.5 36t29.5 101v127q0 49 -17.5 70.5t-66.5 21.5h-16v310h577v-574q0 -22 7 -42.5t22.5 -33t40.5 -14.5h6q24 0 59 16v-348q-20 -8 -49 -14q-24 -4 -62 -8t-91 -4q-54 0 -98 11t-75.5 42t-49 86 t-17.5 145h-16q-21 -143 -74 -212.5t-129 -69.5q-92 0 -144.5 73.5t-76.5 188.5l-21 -4l19 -82l12 -70q6 -35 6 -59v-64q0 -49 18.5 -70.5t67.5 -21.5h55v-309h-712v309h55q39 0 59.5 24.5t20.5 59.5v643q0 49 -18.5 70.5t-67.5 21.5h-56z" />
<glyph unicode="&#xb6;" horiz-adv-x="1229" d="M61 1063q0 76 25 149.5t73 132t121.5 93.5t172.5 35h714v-213h-112v-1260h-234v1260h-139v-1260h-233v655q-93 2 -165.5 39t-121.5 94.5t-75 129t-26 145.5z" />
<glyph unicode="&#xb7;" horiz-adv-x="672" d="M82 725q0 51 20.5 98t54 81t80 54.5t99.5 20.5q51 0 98 -20.5t81 -54.5t54.5 -81t20.5 -98q0 -53 -20.5 -99t-54.5 -80t-81 -54.5t-98 -20.5q-53 0 -99.5 20.5t-80 54.5t-54 80t-20.5 99z" />
<glyph unicode="&#xb8;" horiz-adv-x="1024" d="M174 -393l70 145q65 -39 132.5 -62.5t110.5 -23.5q27 0 49.5 12.5t22.5 42.5q0 23 -17.5 42.5t-54.5 19.5q-12 0 -37.5 -2t-43.5 -6v245h129v-114q28 4 36.5 5t20.5 1q110 0 162.5 -58.5t52.5 -134.5q0 -84 -65.5 -146t-190.5 -62q-117 0 -204 27.5t-173 68.5z" />
<glyph unicode="&#xb9;" horiz-adv-x="758" d="M31 1108v240q30 0 66 5t64.5 19t48 39t19.5 62h355v-646q0 -47 23.5 -60t60.5 -13h49v-269h-672v269h57q39 0 57.5 22.5t18.5 48.5v283h-147z" />
<glyph unicode="&#xba;" horiz-adv-x="1161" d="M61 1096q0 98 37 172.5t104.5 124t164 75t215.5 25.5q116 0 212.5 -25.5t164 -75t104.5 -124t37 -172.5q0 -99 -37 -172.5t-104.5 -124.5t-164 -77t-212.5 -26q-119 0 -215.5 26t-164 77t-104.5 124.5t-37 172.5zM125 371v252h913v-252h-913zM473 1096q0 -115 21.5 -160 t87.5 -45q65 0 86.5 45t21.5 160q0 114 -21.5 158t-86.5 44q-66 0 -87.5 -44t-21.5 -158z" />
<glyph unicode="&#xbb;" horiz-adv-x="1028" d="M61 219l65 143q26 56 40 95t19 62.5t5 41.5q0 10 -4 31.5t-16 59.5t-36 100l-60 151h262q61 -84 100 -142.5t61.5 -98t31 -63.5t8.5 -38q0 -16 -8.5 -39.5t-31 -62.5t-61.5 -97.5t-100 -142.5h-275zM471 219l65 143q25 56 39.5 95t19.5 62.5t5 41.5q0 10 -4 31.5 t-16.5 59.5t-35.5 100l-61 151h262q62 -84 101 -142.5t61.5 -98t30.5 -63.5t8 -38q0 -16 -8 -39.5t-30.5 -62.5t-61.5 -97.5t-101 -142.5h-274z" />
<glyph unicode="&#xbc;" horiz-adv-x="1882" d="M102 1180v192q25 0 53.5 4t52 15.5t39 31t15.5 50.5h264v-519q0 -36 18.5 -47.5t49.5 -11.5h39v-215h-518v215h45q30 0 45.5 18.5t15.5 38.5v228h-119zM238 0l1083 1473h289l-1084 -1473h-288zM985 254v172l338 360h326v-407h131v-125h-131v-25q0 -36 13 -42.5t44 -6.5 h47v-180h-532v180h55q31 0 39 13.5t8 33.5v27h-338zM1122 379h201v217z" />
<glyph unicode="&#xbd;" horiz-adv-x="1989" d="M102 1180v192q25 0 53.5 4t52 15.5t39 31t15.5 50.5h264v-519q0 -36 18.5 -47.5t49.5 -11.5h39v-215h-518v215h45q30 0 45.5 18.5t15.5 38.5v228h-119zM238 0l1083 1473h289l-1084 -1473h-288zM1081 563q0 51 30 93t82 73t126 48.5t162 17.5q94 0 168.5 -18.5t126 -51.5 t79 -76t27.5 -92q0 -80 -37 -123t-94 -66.5t-127 -34.5t-137.5 -27.5t-123.5 -46.5t-87 -87l8 -2q25 27 70 58.5t119 31.5q36 0 63 -4t48.5 -8t38.5 -8t36 -4q33 0 55.5 13t22.5 60h149q0 -102 -22.5 -164.5t-61.5 -97.5t-90 -47t-108 -12q-45 0 -85 8t-77 18l-70 17 q-33 8 -63 8q-25 0 -40.5 -6t-25.5 -15q-10 -8 -16 -18h-142q0 106 33 176t81 117t105 76l106 54q48 26 81 53.5t33 70.5t-35 63.5t-84 20.5q-39 0 -65.5 -6.5t-55.5 -18.5q35 -10 60.5 -27.5t25.5 -58.5q0 -37 -38 -66.5t-105 -29.5q-25 0 -50.5 7t-47 23.5t-35 43 t-13.5 65.5z" />
<glyph unicode="&#xbe;" horiz-adv-x="2005" d="M61 922q0 71 41 110t101 39q71 0 104 -33.5t33 -68.5q0 -45 -26.5 -64.5t-61.5 -25.5q29 -17 61.5 -26t77.5 -9q146 0 146 100q0 53 -38 74.5t-83 21.5h-39v115h39q53 0 79.5 26.5t26.5 57.5q0 49 -39 69.5t-88 20.5q-55 0 -78.5 -12t-35.5 -23q22 2 48.5 -11t26.5 -60 q0 -43 -34.5 -69t-94.5 -26q-57 0 -101 36t-44 108q0 100 98.5 160.5t270.5 60.5q69 0 138.5 -10t125 -35t90.5 -66t35 -102q0 -150 -181 -180v-4q91 -11 147 -59t56 -138q0 -37 -23.5 -77t-73.5 -72.5t-129 -53t-190 -20.5q-104 0 -177.5 21.5t-120 56t-67 79t-20.5 89.5z M360 0l1084 1473h289l-1084 -1473h-289zM1108 254v172l338 360h326v-407h131v-125h-131v-25q0 -36 13 -42.5t44 -6.5h47v-180h-533v180h56q31 0 39 13.5t8 33.5v27h-338zM1245 379h201v217z" />
<glyph unicode="&#xbf;" horiz-adv-x="1307" d="M82 367q0 94 36 160.5t91 115.5t117 86l118 71q56 34 91.5 68.5t35.5 79.5h283q0 -121 -35 -196.5t-77 -134t-76.5 -113.5t-34.5 -131q0 -51 22.5 -88t58.5 -55.5t81 -18.5t92 22q-62 19 -96.5 60t-34.5 117q0 34 15 67t45 59.5t74 42t103 15.5q43 0 88 -11.5t82 -40 t60.5 -76.5t23.5 -120q0 -88 -44 -156.5t-123 -115.5t-188.5 -72t-240.5 -25q-284 0 -425.5 101.5t-141.5 288.5zM457 1260q0 51 20.5 98t54 81t79.5 54t100 20q51 0 98 -20t81 -54t54.5 -81t20.5 -98q0 -54 -20.5 -100t-54.5 -79.5t-81 -54t-98 -20.5q-54 0 -100 20.5 t-79.5 54t-54 79.5t-20.5 100z" />
<glyph unicode="&#xc0;" horiz-adv-x="1647" d="M20 0v371h41q72 0 96.5 28.5t47.5 83.5l205 506q13 35 13 59q0 16 -5 26q-15 28 -88 28h-21v371h1028v-371h-20q-74 0 -89 -29q-5 -11 -5 -26q0 -24 14 -58l205 -506l22 -49q9 -20 23 -34.5t37.5 -21.5t60.5 -7h41v-371h-909v371h55q57 0 76 29q11 15 11 35q0 17 -7 36 l-14 43h-316l-14 -43q-8 -20 -8 -37q0 -19 10 -34q18 -29 76 -29h57v-371h-623zM322 1863h403l209 -309h-246zM573 670h213l-100 307h-8z" />
<glyph unicode="&#xc1;" horiz-adv-x="1647" d="M20 0v371h41q72 0 96.5 28.5t47.5 83.5l205 506q13 35 13 59q0 16 -5 26q-15 28 -88 28h-21v371h1028v-371h-20q-74 0 -89 -29q-5 -11 -5 -26q0 -24 14 -58l205 -506l22 -49q9 -20 23 -34.5t37.5 -21.5t60.5 -7h41v-371h-909v371h55q57 0 76 29q11 15 11 35q0 17 -7 36 l-14 43h-316l-14 -43q-8 -20 -8 -37q0 -19 10 -34q18 -29 76 -29h57v-371h-623zM573 670h213l-100 307h-8zM676 1554l209 309h403l-366 -309h-246z" />
<glyph unicode="&#xc2;" horiz-adv-x="1647" d="M20 0v371h41q72 0 96.5 28.5t47.5 83.5l205 506q13 35 13 59q0 16 -5 26q-15 28 -88 28h-21v371h1028v-371h-20q-74 0 -89 -29q-5 -11 -5 -26q0 -24 14 -58l205 -506l22 -49q9 -20 23 -34.5t37.5 -21.5t60.5 -7h41v-371h-909v371h55q57 0 76 29q11 15 11 35q0 17 -7 36 l-14 43h-316l-14 -43q-8 -20 -8 -37q0 -19 10 -34q18 -29 76 -29h57v-371h-623zM404 1554l247 309h310l247 -309h-243l-160 111l-158 -111h-243zM573 670h213l-100 307h-8z" />
<glyph unicode="&#xc3;" horiz-adv-x="1647" d="M20 0v371h41q72 0 96.5 28.5t47.5 83.5l205 506q13 35 13 59q0 16 -5 26q-15 28 -88 28h-21v371h1028v-371h-20q-74 0 -89 -29q-5 -11 -5 -26q0 -24 14 -58l205 -506l22 -49q9 -20 23 -34.5t37.5 -21.5t60.5 -7h41v-371h-909v371h55q57 0 76 29q11 15 11 35q0 17 -7 36 l-14 43h-316l-14 -43q-8 -20 -8 -37q0 -19 10 -34q18 -29 76 -29h57v-371h-623zM430 1572q6 54 26.5 106t53.5 93t79 65.5t105 24.5q45 0 82 -11t69 -23.5t63.5 -23.5t66.5 -11q27 0 52.5 17t31.5 52h160q-6 -53 -26.5 -105t-53.5 -93t-79 -66t-106 -25q-47 0 -82.5 11.5 t-68.5 24.5l-63 23q-31 11 -66 11q-27 0 -52.5 -17.5t-31.5 -52.5h-160zM573 670h213l-100 307h-8z" />
<glyph unicode="&#xc4;" horiz-adv-x="1647" d="M20 0v371h41q72 0 96.5 28.5t47.5 83.5l205 506q13 35 13 59q0 16 -5 26q-15 28 -88 28h-21v371h1028v-371h-20q-74 0 -89 -29q-5 -11 -5 -26q0 -24 14 -58l205 -506l22 -49q9 -20 23 -34.5t37.5 -21.5t60.5 -7h41v-371h-909v371h55q57 0 76 29q11 15 11 35q0 17 -7 36 l-14 43h-316l-14 -43q-8 -20 -8 -37q0 -19 10 -34q18 -29 76 -29h57v-371h-623zM467 1718q0 27 11.5 53.5t32 46t47 31.5t54.5 12q60 0 101 -42t41 -101q0 -64 -40 -103.5t-102 -39.5q-59 0 -102 41.5t-43 101.5zM573 670h213l-100 307h-8zM858 1718q0 55 42 99t102 44 q59 0 101 -42t42 -101q0 -64 -41 -103.5t-102 -39.5q-60 0 -102 41.5t-42 101.5z" />
<glyph unicode="&#xc5;" horiz-adv-x="1647" d="M20 0v371h41q72 0 96.5 28.5t47.5 83.5l205 506q13 35 13 59q0 16 -5 26q-15 28 -88 28h-21v371h1028v-371h-20q-74 0 -89 -29q-5 -11 -5 -26q0 -24 14 -58l205 -506l22 -49q9 -20 23 -34.5t37.5 -21.5t60.5 -7h41v-371h-909v371h55q57 0 76 29q11 15 11 35q0 17 -7 36 l-14 43h-316l-14 -43q-8 -20 -8 -37q0 -19 10 -34q18 -29 76 -29h57v-371h-623zM543 1780q0 55 20.5 103t56 85t84 57.5t103.5 20.5t103.5 -20.5t85 -57.5t57 -85t20.5 -103t-20.5 -104.5t-57 -85t-85 -56t-103.5 -20.5t-103.5 20.5t-84 56t-56 85t-20.5 104.5zM573 670h213 l-100 307h-8zM705 1780q0 -43 28.5 -73t73.5 -30q41 0 71.5 30t30.5 73q0 41 -30.5 71.5t-71.5 30.5q-45 0 -73.5 -30.5t-28.5 -71.5z" />
<glyph unicode="&#xc6;" horiz-adv-x="2138" d="M20 0v371h21q37 0 61.5 7t43 21.5t31.5 35.5l28 48l258 506q18 34 18 58q0 15 -7 26q-17 29 -91 29h-21v371h1735v-545h-350q0 53 -6 87t-22.5 53t-44 26.5t-68.5 7.5h-181v-266h320v-177h-320v-288h181q41 0 68.5 7t44 26.5t22.5 53.5t6 87h350v-545h-1405v371 q88 0 126 23.5t38 88.5v62h-319l-37 -74q-11 -21 -11 -39q0 -17 11 -32q20 -29 78 -29h57v-371h-615zM616 700h240v402h-35z" />
<glyph unicode="&#xc7;" horiz-adv-x="1616" d="M51 735q0 207 63.5 354.5t168 241.5t238.5 138t278 44q67 0 125.5 -11t106.5 -28.5t83 -37t57 -35.5v72h330v-545h-350q0 67 -16.5 112t-44 73t-64.5 40t-80 12q-59 0 -101 -22.5t-68.5 -72.5t-40 -133t-13.5 -202q0 -121 14.5 -202.5t44 -132t75.5 -73t110 -22.5 q43 0 83 16.5t70.5 50.5t48 85t17.5 123h348q0 -127 -40 -240t-125 -198t-216 -135t-311 -50q-162 0 -306.5 44t-252 138t-170 241.5t-62.5 354.5zM491 -412l70 145q65 -39 132.5 -62.5t110.5 -23.5q27 0 49.5 12.5t22.5 42.5q0 23 -17.5 42.5t-54.5 19.5q-12 0 -37.5 -2 t-43.5 -6v245h129v-114q28 4 36.5 5t20.5 1q110 0 162.5 -58.5t52.5 -134.5q0 -84 -65.5 -146t-190.5 -62q-117 0 -204 27.5t-173 68.5z" />
<glyph unicode="&#xc8;" horiz-adv-x="1507" d="M41 0v371q88 0 126 23.5t38 88.5v506q0 66 -38 89.5t-126 23.5v371h1425v-545h-350q0 53 -6 87t-22.5 53t-44 26.5t-68.5 7.5h-180v-266h319v-177h-319v-288h180q41 0 68.5 7t44 26.5t22.5 53.5t6 87h350v-545h-1425zM277 1863h403l209 -309h-246z" />
<glyph unicode="&#xc9;" horiz-adv-x="1507" d="M41 0v371q88 0 126 23.5t38 88.5v506q0 66 -38 89.5t-126 23.5v371h1425v-545h-350q0 53 -6 87t-22.5 53t-44 26.5t-68.5 7.5h-180v-266h319v-177h-319v-288h180q41 0 68.5 7t44 26.5t22.5 53.5t6 87h350v-545h-1425zM631 1554l209 309h403l-366 -309h-246z" />
<glyph unicode="&#xca;" horiz-adv-x="1507" d="M41 0v371q88 0 126 23.5t38 88.5v506q0 66 -38 89.5t-126 23.5v371h1425v-545h-350q0 53 -6 87t-22.5 53t-44 26.5t-68.5 7.5h-180v-266h319v-177h-319v-288h180q41 0 68.5 7t44 26.5t22.5 53.5t6 87h350v-545h-1425zM359 1554l247 309h310l247 -309h-243l-160 111 l-158 -111h-243z" />
<glyph unicode="&#xcb;" horiz-adv-x="1507" d="M41 0v371q88 0 126 23.5t38 88.5v506q0 66 -38 89.5t-126 23.5v371h1425v-545h-350q0 53 -6 87t-22.5 53t-44 26.5t-68.5 7.5h-180v-266h319v-177h-319v-288h180q41 0 68.5 7t44 26.5t22.5 53.5t6 87h350v-545h-1425zM422 1718q0 27 11.5 53.5t32 46t47 31.5t54.5 12 q60 0 101 -42t41 -101q0 -64 -40 -103.5t-102 -39.5q-59 0 -102 41.5t-43 101.5zM813 1718q0 55 42 99t102 44q59 0 101 -42t42 -101q0 -64 -41 -103.5t-102 -39.5q-60 0 -102 41.5t-42 101.5z" />
<glyph unicode="&#xcc;" horiz-adv-x="999" d="M20 1863h403l209 -309h-246zM41 0v371q88 0 126 23.5t38 88.5v506q0 66 -38 89.5t-126 23.5v371h917v-371q-88 0 -125.5 -23.5t-37.5 -89.5v-506q0 -65 37.5 -88.5t125.5 -23.5v-371h-917z" />
<glyph unicode="&#xcd;" horiz-adv-x="999" d="M41 0v371q88 0 126 23.5t38 88.5v506q0 66 -38 89.5t-126 23.5v371h917v-371q-88 0 -125.5 -23.5t-37.5 -89.5v-506q0 -65 37.5 -88.5t125.5 -23.5v-371h-917zM373 1554l209 309h403l-366 -309h-246z" />
<glyph unicode="&#xce;" horiz-adv-x="999" d="M41 0v371q88 0 126 23.5t38 88.5v506q0 66 -38 89.5t-126 23.5v371h917v-371q-88 0 -125.5 -23.5t-37.5 -89.5v-506q0 -65 37.5 -88.5t125.5 -23.5v-371h-917zM102 1554l247 309h310l247 -309h-243l-160 111l-158 -111h-243z" />
<glyph unicode="&#xcf;" horiz-adv-x="999" d="M41 0v371q88 0 126 23.5t38 88.5v506q0 66 -38 89.5t-126 23.5v371h917v-371q-88 0 -125.5 -23.5t-37.5 -89.5v-506q0 -65 37.5 -88.5t125.5 -23.5v-371h-917zM165 1718q0 27 11.5 53.5t32 46t47 31.5t54.5 12q60 0 101 -42t41 -101q0 -64 -40 -103.5t-102 -39.5 q-59 0 -102 41.5t-43 101.5zM556 1718q0 55 42 99t102 44q59 0 101 -42t42 -101q0 -64 -41 -103.5t-102 -39.5q-60 0 -102 41.5t-42 101.5z" />
<glyph unicode="&#xd0;" horiz-adv-x="1901" d="M41 0v371q88 0 126 23.5t38 88.5v176h-164v177h164v153q0 66 -38 89.5t-126 23.5v371h1061q143 0 277 -38t238.5 -124t168 -227.5t63.5 -348.5t-62.5 -348t-170 -227t-251.5 -124t-306 -38zM795 371h94q55 0 107.5 12t92 50t64.5 109.5t25 192.5q0 119 -24 191.5 t-62.5 111.5t-92 51.5t-110.5 12.5h-94v-266h219v-177h-219v-288z" />
<glyph unicode="&#xd1;" horiz-adv-x="1851" d="M41 0v371q88 0 126 23.5t38 88.5v506q0 66 -38 89.5t-126 23.5v371h786l500 -783v299q0 66 -27.5 89.5t-115.5 23.5v371h647v-371q-88 0 -115.5 -29t-27.5 -84v-989h-601l-522 817v-346q0 -65 38 -82.5t126 -17.5v-371h-688zM577 1572q6 54 26.5 106t53.5 93t79 65.5 t105 24.5q45 0 82 -11t69 -23.5t63.5 -23.5t66.5 -11q27 0 52.5 17t31.5 52h160q-6 -53 -26.5 -105t-53.5 -93t-79 -66t-106 -25q-47 0 -82.5 11.5t-68.5 24.5l-64 23q-30 11 -65 11q-27 0 -52.5 -17.5t-31.5 -52.5h-160z" />
<glyph unicode="&#xd2;" horiz-adv-x="1843" d="M51 735q0 193 63.5 338.5t179.5 243.5t275.5 147t352.5 49q192 0 352 -49t275.5 -147t179 -243.5t63.5 -338.5q0 -192 -63.5 -337.5t-179 -244t-275.5 -147.5t-352 -49q-193 0 -352.5 49t-275.5 147.5t-179.5 244t-63.5 337.5zM436 1904h403l209 -309h-246zM723 735 q0 -121 9 -202.5t31.5 -132t60.5 -73t98 -22.5q57 0 96 22.5t61.5 73t31.5 132t9 202.5q0 119 -9 202t-31.5 133t-61.5 72.5t-96 22.5q-60 0 -98 -22.5t-60.5 -72.5t-31.5 -133t-9 -202z" />
<glyph unicode="&#xd3;" horiz-adv-x="1843" d="M51 735q0 193 63.5 338.5t179.5 243.5t275.5 147t352.5 49q192 0 352 -49t275.5 -147t179 -243.5t63.5 -338.5q0 -192 -63.5 -337.5t-179 -244t-275.5 -147.5t-352 -49q-193 0 -352.5 49t-275.5 147.5t-179.5 244t-63.5 337.5zM723 735q0 -121 9 -202.5t31.5 -132 t60.5 -73t98 -22.5q57 0 96 22.5t61.5 73t31.5 132t9 202.5q0 119 -9 202t-31.5 133t-61.5 72.5t-96 22.5q-60 0 -98 -22.5t-60.5 -72.5t-31.5 -133t-9 -202zM791 1595l209 309h403l-366 -309h-246z" />
<glyph unicode="&#xd4;" horiz-adv-x="1843" d="M51 735q0 193 63.5 338.5t179.5 243.5t275.5 147t352.5 49q192 0 352 -49t275.5 -147t179 -243.5t63.5 -338.5q0 -192 -63.5 -337.5t-179 -244t-275.5 -147.5t-352 -49q-193 0 -352.5 49t-275.5 147.5t-179.5 244t-63.5 337.5zM519 1595l247 309h310l247 -309h-243 l-160 111l-158 -111h-243zM723 735q0 -121 9 -202.5t31.5 -132t60.5 -73t98 -22.5q57 0 96 22.5t61.5 73t31.5 132t9 202.5q0 119 -9 202t-31.5 133t-61.5 72.5t-96 22.5q-60 0 -98 -22.5t-60.5 -72.5t-31.5 -133t-9 -202z" />
<glyph unicode="&#xd5;" horiz-adv-x="1843" d="M51 735q0 193 63.5 338.5t179.5 243.5t275.5 147t352.5 49q192 0 352 -49t275.5 -147t179 -243.5t63.5 -338.5q0 -192 -63.5 -337.5t-179 -244t-275.5 -147.5t-352 -49q-193 0 -352.5 49t-275.5 147.5t-179.5 244t-63.5 337.5zM545 1613q6 54 26.5 106t53.5 93t79 65.5 t105 24.5q45 0 82 -11t69 -23.5t63.5 -23.5t66.5 -11q27 0 52.5 17t31.5 52h160q-6 -53 -26.5 -105t-53.5 -93t-79 -66t-106 -25q-47 0 -82.5 11.5t-68.5 23.5l-64 24q-30 11 -65 11q-27 0 -52.5 -17.5t-31.5 -52.5h-160zM723 735q0 -121 9 -202.5t31.5 -132t60.5 -73 t98 -22.5q57 0 96 22.5t61.5 73t31.5 132t9 202.5q0 119 -9 202t-31.5 133t-61.5 72.5t-96 22.5q-60 0 -98 -22.5t-60.5 -72.5t-31.5 -133t-9 -202z" />
<glyph unicode="&#xd6;" horiz-adv-x="1843" d="M51 735q0 193 63.5 338.5t179.5 243.5t275.5 147t352.5 49q192 0 352 -49t275.5 -147t179 -243.5t63.5 -338.5q0 -192 -63.5 -337.5t-179 -244t-275.5 -147.5t-352 -49q-193 0 -352.5 49t-275.5 147.5t-179.5 244t-63.5 337.5zM582 1759q0 27 11.5 53.5t32 46t47 31.5 t54.5 12q60 0 101 -42t41 -101q0 -64 -40 -103.5t-102 -39.5q-59 0 -102 41.5t-43 101.5zM723 735q0 -121 9 -202.5t31.5 -132t60.5 -73t98 -22.5q57 0 96 22.5t61.5 73t31.5 132t9 202.5q0 119 -9 202t-31.5 133t-61.5 72.5t-96 22.5q-60 0 -98 -22.5t-60.5 -72.5 t-31.5 -133t-9 -202zM973 1759q0 55 42 99t102 44q59 0 101 -42t42 -101q0 -64 -41 -103.5t-102 -39.5q-60 0 -102 41.5t-42 101.5z" />
<glyph unicode="&#xd7;" d="M174 403l311 312l-311 311l229 229l312 -311l313 313l229 -229l-313 -313l313 -314l-229 -229l-313 313l-312 -311z" />
<glyph unicode="&#xd8;" horiz-adv-x="1843" d="M51 735q0 193 63.5 338.5t179.5 243.5t275.5 147t352.5 49q98 0 188 -13t170 -38l94 133h289l-168 -239q141 -99 219 -253.5t78 -367.5q0 -192 -63.5 -337.5t-179 -244t-275.5 -147.5t-352 -49q-201 0 -367 53l-94 -135h-289l168 242q-137 98 -213 252.5t-76 365.5z M723 664l321 458q-47 43 -122 43q-60 0 -98 -22.5t-60.5 -72.5t-31.5 -133t-9 -202v-71zM795 352q41 -47 127 -47q57 0 96 22.5t61.5 73t31.5 132t9 202.5v43q0 19 -2 39z" />
<glyph unicode="&#xd9;" horiz-adv-x="1710" d="M41 1102v371h889v-371q-76 0 -105.5 -23.5t-29.5 -77.5v-462q0 -37 8 -71t27.5 -60.5t52 -42t82.5 -15.5q96 0 140 50.5t44 136.5v460q0 62 -37 83.5t-102 21.5v371h659v-371q-67 0 -103 -19.5t-36 -81.5v-477q0 -92 -23.5 -191.5t-92 -182t-195.5 -137t-336 -54.5 q-152 0 -261.5 27.5t-185.5 72.5t-121 102.5t-69.5 119t-32.5 120t-8 107.5v481q0 66 -38 89.5t-126 23.5zM486 1863h403l209 -309h-246z" />
<glyph unicode="&#xda;" horiz-adv-x="1710" d="M41 1102v371h889v-371q-76 0 -105.5 -23.5t-29.5 -77.5v-462q0 -37 8 -71t27.5 -60.5t52 -42t82.5 -15.5q96 0 140 50.5t44 136.5v460q0 62 -37 83.5t-102 21.5v371h659v-371q-67 0 -103 -19.5t-36 -81.5v-477q0 -92 -23.5 -191.5t-92 -182t-195.5 -137t-336 -54.5 q-152 0 -261.5 27.5t-185.5 72.5t-121 102.5t-69.5 119t-32.5 120t-8 107.5v481q0 66 -38 89.5t-126 23.5zM840 1554l209 309h403l-366 -309h-246z" />
<glyph unicode="&#xdb;" horiz-adv-x="1710" d="M41 1102v371h889v-371q-76 0 -105.5 -23.5t-29.5 -77.5v-462q0 -37 8 -71t27.5 -60.5t52 -42t82.5 -15.5q96 0 140 50.5t44 136.5v460q0 62 -37 83.5t-102 21.5v371h659v-371q-67 0 -103 -19.5t-36 -81.5v-477q0 -92 -23.5 -191.5t-92 -182t-195.5 -137t-336 -54.5 q-152 0 -261.5 27.5t-185.5 72.5t-121 102.5t-69.5 119t-32.5 120t-8 107.5v481q0 66 -38 89.5t-126 23.5zM527 1554l247 309h310l247 -309h-243l-160 111l-158 -111h-243z" />
<glyph unicode="&#xdc;" horiz-adv-x="1710" d="M41 1102v371h889v-371q-76 0 -105.5 -23.5t-29.5 -77.5v-462q0 -37 8 -71t27.5 -60.5t52 -42t82.5 -15.5q96 0 140 50.5t44 136.5v460q0 62 -37 83.5t-102 21.5v371h659v-371q-67 0 -103 -19.5t-36 -81.5v-477q0 -92 -23.5 -191.5t-92 -182t-195.5 -137t-336 -54.5 q-152 0 -261.5 27.5t-185.5 72.5t-121 102.5t-69.5 119t-32.5 120t-8 107.5v481q0 66 -38 89.5t-126 23.5zM600 1718q0 27 11.5 53.5t32 46t47 31.5t54.5 12q60 0 101 -42t41 -101q0 -64 -40 -103.5t-102 -39.5q-59 0 -102 41.5t-43 101.5zM991 1718q0 55 42 99t102 44 q59 0 101 -42t42 -101q0 -64 -41 -103.5t-102 -39.5q-60 0 -102 41.5t-42 101.5z" />
<glyph unicode="&#xdd;" horiz-adv-x="1575" d="M20 1102v371h879v-371q-88 0 -117 -29q-13 -14 -13 -32t15 -40l138 -192h8l137 192q20 22 20 41q0 15 -13 29q-27 31 -122 31v371h602v-371q-30 0 -52.5 -6t-42 -19.5t-39.5 -34.5l-50 -53l-287 -352v-154q0 -65 38 -88.5t126 -23.5v-371h-917v371q88 0 126 23.5t38 88.5 v154l-289 352q-23 23 -39 43.5t-34.5 35.5t-44.5 24.5t-67 9.5zM717 1554l209 309h403l-366 -309h-246z" />
<glyph unicode="&#xde;" horiz-adv-x="1681" d="M41 0v371q88 0 126 23.5t38 88.5v506q0 66 -38 89.5t-126 23.5v371h754v-211h325q148 0 248 -24t160.5 -72t86 -120.5t25.5 -173.5q0 -100 -25.5 -172.5t-86 -121t-160.5 -72t-248 -23.5h-325q0 -53 26.5 -82.5t96.5 -29.5h102v-371h-979zM795 721h108q84 0 116 40 t32 111q0 72 -32 112t-116 40h-108v-303z" />
<glyph unicode="&#xdf;" horiz-adv-x="1661" d="M61 0v371q72 0 108 23.5t36 88.5v463q0 58 6 122.5t29.5 128t69.5 120.5t124 101t193.5 69.5t279.5 25.5q129 0 248 -21.5t208 -70.5t142.5 -128t53.5 -191q0 -139 -80 -231.5t-234 -114.5v-11q170 -16 272.5 -109t102.5 -261q0 -68 -27.5 -135.5t-96.5 -120.5 t-187.5 -86t-302.5 -33h-191v276h21q125 0 170 50.5t45 138.5q0 49 -17.5 84t-48.5 55.5t-72 29.5t-88 9h-10v215h10q56 0 92.5 16.5t60 42t34 57.5t10.5 64q0 92 -38 129t-91 37q-78 0 -105.5 -43t-27.5 -106v-1055h-699z" />
<glyph unicode="&#xe0;" horiz-adv-x="1530" d="M39 250q0 96 54 151.5t136 88t178.5 53t178.5 49.5t136 75t54 130q0 75 -47 120.5t-154 45.5q-51 0 -87.5 -7.5t-62.5 -17.5t-43 -22l-30 -23l10 -10q19 10 41.5 20t57.5 10q59 0 102 -38.5t43 -122.5q0 -80 -65.5 -128.5t-175.5 -48.5q-105 0 -167.5 60.5t-62.5 171.5 q0 61 34 121.5t105.5 108.5t182 79t266.5 31q186 0 304 -35t183.5 -90t90 -125t24.5 -141v-391q0 -91 6 -123.5t45 -32.5q31 0 43.5 29.5t12.5 101.5v125h114v-127q0 -90 -15 -159.5t-57 -119t-114 -75t-184 -25.5q-101 0 -167.5 21.5t-105.5 53.5t-55.5 66.5t-16.5 61.5 h-16q-6 -41 -34.5 -78t-79 -65.5t-121 -46t-160.5 -17.5q-86 0 -156.5 16.5t-120 52t-77 92t-27.5 134.5zM275 1548h403l209 -309h-246zM582 328q0 -33 18 -59.5t70 -26.5q47 0 76.5 36.5t29.5 102.5v149q-22 -32 -55 -52l-63 -38q-31 -18 -53.5 -43.5t-22.5 -68.5z" />
<glyph unicode="&#xe1;" horiz-adv-x="1530" d="M39 250q0 96 54 151.5t136 88t178.5 53t178.5 49.5t136 75t54 130q0 75 -47 120.5t-154 45.5q-51 0 -87.5 -7.5t-62.5 -17.5t-43 -22l-30 -23l10 -10q19 10 41.5 20t57.5 10q59 0 102 -38.5t43 -122.5q0 -80 -65.5 -128.5t-175.5 -48.5q-105 0 -167.5 60.5t-62.5 171.5 q0 61 34 121.5t105.5 108.5t182 79t266.5 31q186 0 304 -35t183.5 -90t90 -125t24.5 -141v-391q0 -91 6 -123.5t45 -32.5q31 0 43.5 29.5t12.5 101.5v125h114v-127q0 -90 -15 -159.5t-57 -119t-114 -75t-184 -25.5q-101 0 -167.5 21.5t-105.5 53.5t-55.5 66.5t-16.5 61.5 h-16q-6 -41 -34.5 -78t-79 -65.5t-121 -46t-160.5 -17.5q-86 0 -156.5 16.5t-120 52t-77 92t-27.5 134.5zM582 328q0 -33 18 -59.5t70 -26.5q47 0 76.5 36.5t29.5 102.5v149q-22 -32 -55 -52l-63 -38q-31 -18 -53.5 -43.5t-22.5 -68.5zM629 1239l209 309h403l-366 -309h-246 z" />
<glyph unicode="&#xe2;" horiz-adv-x="1530" d="M39 250q0 96 54 151.5t136 88t178.5 53t178.5 49.5t136 75t54 130q0 75 -47 120.5t-154 45.5q-51 0 -87.5 -7.5t-62.5 -17.5t-43 -22l-30 -23l10 -10q19 10 41.5 20t57.5 10q59 0 102 -38.5t43 -122.5q0 -80 -65.5 -128.5t-175.5 -48.5q-105 0 -167.5 60.5t-62.5 171.5 q0 61 34 121.5t105.5 108.5t182 79t266.5 31q186 0 304 -35t183.5 -90t90 -125t24.5 -141v-391q0 -91 6 -123.5t45 -32.5q31 0 43.5 29.5t12.5 101.5v125h114v-127q0 -90 -15 -159.5t-57 -119t-114 -75t-184 -25.5q-101 0 -167.5 21.5t-105.5 53.5t-55.5 66.5t-16.5 61.5 h-16q-6 -41 -34.5 -78t-79 -65.5t-121 -46t-160.5 -17.5q-86 0 -156.5 16.5t-120 52t-77 92t-27.5 134.5zM357 1239l247 309h310l247 -309h-243l-160 111l-158 -111h-243zM582 328q0 -33 18 -59.5t70 -26.5q47 0 76.5 36.5t29.5 102.5v149q-22 -32 -55 -52l-63 -38 q-31 -18 -53.5 -43.5t-22.5 -68.5z" />
<glyph unicode="&#xe3;" horiz-adv-x="1530" d="M39 250q0 96 54 151.5t136 88t178.5 53t178.5 49.5t136 75t54 130q0 75 -47 120.5t-154 45.5q-51 0 -87.5 -7.5t-62.5 -17.5t-43 -22l-30 -23l10 -10q19 10 41.5 20t57.5 10q59 0 102 -38.5t43 -122.5q0 -80 -65.5 -128.5t-175.5 -48.5q-105 0 -167.5 60.5t-62.5 171.5 q0 61 34 121.5t105.5 108.5t182 79t266.5 31q186 0 304 -35t183.5 -90t90 -125t24.5 -141v-391q0 -91 6 -123.5t45 -32.5q31 0 43.5 29.5t12.5 101.5v125h114v-127q0 -90 -15 -159.5t-57 -119t-114 -75t-184 -25.5q-101 0 -167.5 21.5t-105.5 53.5t-55.5 66.5t-16.5 61.5 h-16q-6 -41 -34.5 -78t-79 -65.5t-121 -46t-160.5 -17.5q-86 0 -156.5 16.5t-120 52t-77 92t-27.5 134.5zM383 1257q6 54 26.5 106t53.5 93t79 65.5t105 24.5q45 0 82 -11t69 -23.5t63.5 -23.5t66.5 -11q27 0 52.5 17t31.5 52h160q-6 -53 -26.5 -105t-53.5 -93t-79 -66 t-106 -25q-47 0 -82.5 11.5t-68.5 23.5l-64 24q-30 11 -65 11q-27 0 -52.5 -17.5t-31.5 -52.5h-160zM582 328q0 -33 18 -59.5t70 -26.5q47 0 76.5 36.5t29.5 102.5v149q-22 -32 -55 -52l-63 -38q-31 -18 -53.5 -43.5t-22.5 -68.5z" />
<glyph unicode="&#xe4;" horiz-adv-x="1530" d="M39 250q0 96 54 151.5t136 88t178.5 53t178.5 49.5t136 75t54 130q0 75 -47 120.5t-154 45.5q-51 0 -87.5 -7.5t-62.5 -17.5t-43 -22l-30 -23l10 -10q19 10 41.5 20t57.5 10q59 0 102 -38.5t43 -122.5q0 -80 -65.5 -128.5t-175.5 -48.5q-105 0 -167.5 60.5t-62.5 171.5 q0 61 34 121.5t105.5 108.5t182 79t266.5 31q186 0 304 -35t183.5 -90t90 -125t24.5 -141v-391q0 -91 6 -123.5t45 -32.5q31 0 43.5 29.5t12.5 101.5v125h114v-127q0 -90 -15 -159.5t-57 -119t-114 -75t-184 -25.5q-101 0 -167.5 21.5t-105.5 53.5t-55.5 66.5t-16.5 61.5 h-16q-6 -41 -34.5 -78t-79 -65.5t-121 -46t-160.5 -17.5q-86 0 -156.5 16.5t-120 52t-77 92t-27.5 134.5zM420 1403q0 27 11.5 53.5t32 46t47 31.5t54.5 12q60 0 101 -42t41 -101q0 -64 -40 -103.5t-102 -39.5q-59 0 -102 41.5t-43 101.5zM582 328q0 -33 18 -59.5t70 -26.5 q47 0 76.5 36.5t29.5 102.5v149q-22 -32 -55 -52l-63 -38q-31 -18 -53.5 -43.5t-22.5 -68.5zM811 1403q0 55 42 99t102 44q59 0 101 -42t42 -101q0 -64 -41 -103.5t-102 -39.5q-60 0 -102 41.5t-42 101.5z" />
<glyph unicode="&#xe5;" horiz-adv-x="1530" d="M39 250q0 96 54 151.5t136 88t178.5 53t178.5 49.5t136 75t54 130q0 75 -47 120.5t-154 45.5q-51 0 -87.5 -7.5t-62.5 -17.5t-43 -22l-30 -23l10 -10q19 10 41.5 20t57.5 10q59 0 102 -38.5t43 -122.5q0 -80 -65.5 -128.5t-175.5 -48.5q-105 0 -167.5 60.5t-62.5 171.5 q0 61 34 121.5t105.5 108.5t182 79t266.5 31q186 0 304 -35t183.5 -90t90 -125t24.5 -141v-391q0 -91 6 -123.5t45 -32.5q31 0 43.5 29.5t12.5 101.5v125h114v-127q0 -90 -15 -159.5t-57 -119t-114 -75t-184 -25.5q-101 0 -167.5 21.5t-105.5 53.5t-55.5 66.5t-16.5 61.5 h-16q-6 -41 -34.5 -78t-79 -65.5t-121 -46t-160.5 -17.5q-86 0 -156.5 16.5t-120 52t-77 92t-27.5 134.5zM496 1485q0 55 20.5 103t56 85t84 57.5t103.5 20.5t103.5 -20.5t85 -57.5t57 -85t20.5 -103t-20.5 -104.5t-57 -85t-85 -56t-103.5 -20.5t-103.5 20.5t-84 56t-56 85 t-20.5 104.5zM582 328q0 -33 18 -59.5t70 -26.5q47 0 76.5 36.5t29.5 102.5v149q-22 -32 -55 -52l-63 -38q-31 -18 -53.5 -43.5t-22.5 -68.5zM658 1485q0 -43 28.5 -73t73.5 -30q41 0 71.5 30t30.5 73q0 41 -30.5 71.5t-71.5 30.5q-45 0 -73.5 -30.5t-28.5 -71.5z" />
<glyph unicode="&#xe6;" horiz-adv-x="2140" d="M39 256q0 96 54 150.5t136 87t178.5 52t178.5 47.5t136 74t54 130q0 75 -47 120.5t-154 45.5q-51 0 -87.5 -7.5t-62.5 -17.5t-43 -23l-30 -22l10 -10q19 10 41.5 20t57.5 10q59 0 102 -38.5t43 -122.5q0 -80 -65.5 -128.5t-175.5 -48.5q-105 0 -167.5 60.5t-62.5 171.5 q0 61 34 121.5t105.5 108.5t182 79t266.5 31q264 0 379 -96q61 39 153.5 67.5t208.5 28.5q158 0 278 -48t198.5 -134t118.5 -207q38 -115 38 -255v-14h-770q4 -149 51 -205.5t146 -56.5q32 0 62 9.5t54.5 31t43 57t24.5 89.5h365q-21 -129 -73 -216t-132 -140.5t-185.5 -77 t-230.5 -23.5q-166 0 -309.5 51t-229.5 158q-28 -39 -73 -75t-107.5 -63.5t-140.5 -44t-172 -16.5q-86 0 -156.5 15.5t-120 50.5t-77 90t-27.5 133zM582 313q0 -32 18 -59t70 -27q28 0 53 14.5t44 36t31.5 48t16.5 53.5q-8 18 -11 50t-5 63q-2 36 -2 73q-23 -37 -59 -64 l-71 -55q-34 -28 -59.5 -59t-25.5 -74zM1327 664h272q-6 98 -35.5 155.5t-97.5 57.5q-69 0 -99 -49.5t-40 -163.5z" />
<glyph unicode="&#xe7;" horiz-adv-x="1339" d="M41 553q0 147 50 258t140.5 185.5t214 112.5t271.5 38q157 0 265 -39t174.5 -97.5t95 -126t28.5 -126.5q0 -47 -13.5 -92t-44 -82t-77.5 -59.5t-115 -22.5q-65 0 -106 18.5t-63.5 46t-32 58t-9.5 57.5q0 61 29 97t67 50q-22 17 -44.5 32.5t-82.5 15.5q-86 0 -132 -73 t-46 -243t47.5 -241.5t145.5 -71.5q28 0 57 9t52.5 26.5t39 45t17.5 64.5h323q-32 -223 -179.5 -329.5t-420.5 -106.5q-137 0 -256 36t-207 109.5t-138 185t-50 265.5zM352 -412l70 145q65 -39 132.5 -62.5t110.5 -23.5q27 0 49.5 12.5t22.5 42.5q0 23 -17.5 42.5 t-54.5 19.5q-12 0 -37.5 -2t-43.5 -6v245h129v-114q28 4 36.5 5t20.5 1q110 0 162.5 -58.5t52.5 -134.5q0 -84 -65.5 -146t-190.5 -62q-117 0 -204 27.5t-173 68.5z" />
<glyph unicode="&#xe8;" horiz-adv-x="1446" d="M41 553q0 147 50 258t140.5 185.5t214 112.5t271.5 38q182 0 313 -48t214 -134t122 -207q37 -115 37 -255v-14h-791q4 -149 56.5 -205.5t150.5 -56.5q33 0 64.5 9.5t58.5 31t46.5 57t25.5 89.5h364q-20 -129 -73.5 -216t-137.5 -140.5t-195.5 -77t-248.5 -23.5 q-141 0 -265 36t-217.5 109.5t-146.5 185t-53 265.5zM232 1548h403l209 -309h-246zM612 664h293q-6 98 -42 155.5t-103 57.5q-70 0 -103.5 -49.5t-44.5 -163.5z" />
<glyph unicode="&#xe9;" horiz-adv-x="1446" d="M41 553q0 147 50 258t140.5 185.5t214 112.5t271.5 38q182 0 313 -48t214 -134t122 -207q37 -115 37 -255v-14h-791q4 -149 56.5 -205.5t150.5 -56.5q33 0 64.5 9.5t58.5 31t46.5 57t25.5 89.5h364q-20 -129 -73.5 -216t-137.5 -140.5t-195.5 -77t-248.5 -23.5 q-141 0 -265 36t-217.5 109.5t-146.5 185t-53 265.5zM586 1239l209 309h403l-366 -309h-246zM612 664h293q-6 98 -42 155.5t-103 57.5q-70 0 -103.5 -49.5t-44.5 -163.5z" />
<glyph unicode="&#xea;" horiz-adv-x="1446" d="M41 553q0 147 50 258t140.5 185.5t214 112.5t271.5 38q182 0 313 -48t214 -134t122 -207q37 -115 37 -255v-14h-791q4 -149 56.5 -205.5t150.5 -56.5q33 0 64.5 9.5t58.5 31t46.5 57t25.5 89.5h364q-20 -129 -73.5 -216t-137.5 -140.5t-195.5 -77t-248.5 -23.5 q-141 0 -265 36t-217.5 109.5t-146.5 185t-53 265.5zM314 1239l247 309h310l247 -309h-243l-160 111l-158 -111h-243zM612 664h293q-6 98 -42 155.5t-103 57.5q-70 0 -103.5 -49.5t-44.5 -163.5z" />
<glyph unicode="&#xeb;" horiz-adv-x="1446" d="M41 553q0 147 50 258t140.5 185.5t214 112.5t271.5 38q182 0 313 -48t214 -134t122 -207q37 -115 37 -255v-14h-791q4 -149 56.5 -205.5t150.5 -56.5q33 0 64.5 9.5t58.5 31t46.5 57t25.5 89.5h364q-20 -129 -73.5 -216t-137.5 -140.5t-195.5 -77t-248.5 -23.5 q-141 0 -265 36t-217.5 109.5t-146.5 185t-53 265.5zM377 1403q0 27 11.5 53.5t32 46t47 31.5t54.5 12q60 0 101 -42t41 -101q0 -64 -40 -103.5t-102 -39.5q-59 0 -102 41.5t-43 101.5zM612 664h293q-6 98 -42 155.5t-103 57.5q-70 0 -103.5 -49.5t-44.5 -163.5zM768 1403 q0 55 42 99t102 44q59 0 101 -42t42 -101q0 -64 -41 -103.5t-102 -39.5q-60 0 -102 41.5t-42 101.5z" />
<glyph unicode="&#xec;" horiz-adv-x="944" d="M-54 1547h403l209 -309h-246zM82 0v371h39q53 0 78.5 33.5t25.5 72.5v141q0 58 -36.5 85.5t-84.5 27.5h-22v371h698v-623q0 -67 33 -87.5t84 -20.5h27v-371h-842z" />
<glyph unicode="&#xed;" horiz-adv-x="944" d="M82 0v371h39q53 0 78.5 33.5t25.5 72.5v141q0 58 -36.5 85.5t-84.5 27.5h-22v371h698v-623q0 -67 33 -87.5t84 -20.5h27v-371h-842zM299 1238l209 309h403l-366 -309h-246z" />
<glyph unicode="&#xee;" horiz-adv-x="944" d="M28 1238l247 309h310l247 -309h-243l-160 111l-158 -111h-243zM82 0v371h39q53 0 78.5 33.5t25.5 72.5v141q0 58 -36.5 85.5t-84.5 27.5h-22v371h698v-623q0 -67 33 -87.5t84 -20.5h27v-371h-842z" />
<glyph unicode="&#xef;" horiz-adv-x="944" d="M82 0v371h39q53 0 78.5 33.5t25.5 72.5v141q0 58 -36.5 85.5t-84.5 27.5h-22v371h698v-623q0 -67 33 -87.5t84 -20.5h27v-371h-842zM91 1402q0 27 11.5 53.5t32 46t47 31.5t54.5 12q60 0 101 -42t41 -101q0 -64 -40 -103.5t-102 -39.5q-59 0 -102 41.5t-43 101.5z M482 1402q0 55 42 99t102 44q59 0 101 -42t42 -101q0 -64 -41 -103.5t-102 -39.5q-60 0 -102 41.5t-42 101.5z" />
<glyph unicode="&#xf0;" horiz-adv-x="1524" d="M41 512q0 145 59.5 250.5t164 167t246.5 80.5q61 9 126 9q87 0 182 -15q-22 40 -60 81t-83 78l-223 -102l-70 156l129 59q-66 37 -119 53l92 227q97 -16 192 -45.5t187 -72.5l256 116l68 -157l-139 -64q94 -65 172.5 -145t137 -175t91.5 -206t33 -234q0 -161 -51.5 -278 t-145.5 -191.5t-227 -110.5t-297 -36t-297 31.5t-227.5 99.5t-145.5 173.5t-51 250.5zM610 502q0 -140 31 -197t121 -57t120.5 57t30.5 197q0 139 -30.5 195.5t-120.5 56.5t-121 -56.5t-31 -195.5z" />
<glyph unicode="&#xf1;" horiz-adv-x="1716" d="M82 0v371h59q41 0 62.5 26.5t21.5 63.5v190q0 47 -27.5 63.5t-62.5 16.5h-53v371h594l-21 -275h17q22 154 135 237t307 83q137 0 223 -39t133.5 -98.5t64.5 -129t17 -130.5v-281q0 -53 18.5 -75.5t71.5 -22.5h54v-371h-692v639q0 39 -9.5 62.5t-24 36t-32.5 16.5t-35 4 q-65 0 -97 -38t-32 -108v-143q0 -53 18.5 -75.5t71.5 -22.5h54v-371h-836zM440 1257q6 54 26.5 106t53.5 93t79 65.5t105 24.5q45 0 82 -11t69 -23.5t63.5 -23.5t66.5 -11q27 0 52.5 17t31.5 52h160q-6 -53 -26.5 -105t-53.5 -93t-79 -66t-106 -25q-47 0 -82.5 11.5 t-68.5 23.5l-63 24q-31 11 -66 11q-27 0 -52.5 -17.5t-31.5 -52.5h-160z" />
<glyph unicode="&#xf2;" horiz-adv-x="1524" d="M41 553q0 147 51 258t145.5 185.5t227.5 112.5t297 38t297 -38t227 -112.5t145.5 -185.5t51.5 -258q0 -145 -51.5 -257t-145.5 -187.5t-227 -113.5t-297 -38t-297 38t-227.5 113.5t-145.5 187.5t-51 257zM277 1548h403l209 -309h-246zM610 553q0 -84 7.5 -142.5t24.5 -94 t46 -52t74 -16.5t73.5 16.5t46 52t24.5 94t7 142.5q0 168 -31.5 235.5t-119.5 67.5q-45 0 -74 -15.5t-46 -51t-24.5 -94t-7.5 -142.5z" />
<glyph unicode="&#xf3;" horiz-adv-x="1524" d="M41 553q0 147 51 258t145.5 185.5t227.5 112.5t297 38t297 -38t227 -112.5t145.5 -185.5t51.5 -258q0 -145 -51.5 -257t-145.5 -187.5t-227 -113.5t-297 -38t-297 38t-227.5 113.5t-145.5 187.5t-51 257zM610 553q0 -84 7.5 -142.5t24.5 -94t46 -52t74 -16.5t73.5 16.5 t46 52t24.5 94t7 142.5q0 168 -31.5 235.5t-119.5 67.5q-45 0 -74 -15.5t-46 -51t-24.5 -94t-7.5 -142.5zM631 1239l209 309h403l-366 -309h-246z" />
<glyph unicode="&#xf4;" horiz-adv-x="1524" d="M41 553q0 147 51 258t145.5 185.5t227.5 112.5t297 38t297 -38t227 -112.5t145.5 -185.5t51.5 -258q0 -145 -51.5 -257t-145.5 -187.5t-227 -113.5t-297 -38t-297 38t-227.5 113.5t-145.5 187.5t-51 257zM359 1239l247 309h310l247 -309h-243l-160 111l-158 -111h-243z M610 553q0 -84 7.5 -142.5t24.5 -94t46 -52t74 -16.5t73.5 16.5t46 52t24.5 94t7 142.5q0 168 -31.5 235.5t-119.5 67.5q-45 0 -74 -15.5t-46 -51t-24.5 -94t-7.5 -142.5z" />
<glyph unicode="&#xf5;" horiz-adv-x="1524" d="M41 553q0 147 51 258t145.5 185.5t227.5 112.5t297 38t297 -38t227 -112.5t145.5 -185.5t51.5 -258q0 -145 -51.5 -257t-145.5 -187.5t-227 -113.5t-297 -38t-297 38t-227.5 113.5t-145.5 187.5t-51 257zM385 1257q6 54 26.5 106t53.5 93t79 65.5t105 24.5q45 0 82 -11 t69 -23.5t63.5 -23.5t66.5 -11q27 0 52.5 17t31.5 52h160q-6 -53 -26.5 -105t-53.5 -93t-79 -66t-106 -25q-47 0 -82.5 11.5t-68.5 23.5l-64 24q-30 11 -65 11q-27 0 -52.5 -17.5t-31.5 -52.5h-160zM610 553q0 -84 7.5 -142.5t24.5 -94t46 -52t74 -16.5t73.5 16.5t46 52 t24.5 94t7 142.5q0 168 -31.5 235.5t-119.5 67.5q-45 0 -74 -15.5t-46 -51t-24.5 -94t-7.5 -142.5z" />
<glyph unicode="&#xf6;" horiz-adv-x="1524" d="M41 553q0 147 51 258t145.5 185.5t227.5 112.5t297 38t297 -38t227 -112.5t145.5 -185.5t51.5 -258q0 -145 -51.5 -257t-145.5 -187.5t-227 -113.5t-297 -38t-297 38t-227.5 113.5t-145.5 187.5t-51 257zM422 1403q0 27 11.5 53.5t32 46t47 31.5t54.5 12q60 0 101 -42 t41 -101q0 -64 -40 -103.5t-102 -39.5q-59 0 -102 41.5t-43 101.5zM610 553q0 -84 7.5 -142.5t24.5 -94t46 -52t74 -16.5t73.5 16.5t46 52t24.5 94t7 142.5q0 168 -31.5 235.5t-119.5 67.5q-45 0 -74 -15.5t-46 -51t-24.5 -94t-7.5 -142.5zM813 1403q0 55 42 99t102 44 q59 0 101 -42t42 -101q0 -64 -41 -103.5t-102 -39.5q-60 0 -102 41.5t-42 101.5z" />
<glyph unicode="&#xf7;" d="M154 553v326h1126v-326h-1126zM528 283q0 77 53.5 130.5t131.5 53.5t131 -53.5t53 -130.5q0 -78 -53 -131.5t-131 -53.5t-131.5 53.5t-53.5 131.5zM528 1149q0 78 53.5 131t131.5 53t131 -53t53 -131t-53 -131t-131 -53t-131.5 53t-53.5 131z" />
<glyph unicode="&#xf8;" horiz-adv-x="1524" d="M41 553q0 147 51 258t145.5 185.5t227.5 112.5t297 38q153 0 282 -35l72 96h248l-129 -176q117 -74 182.5 -193.5t65.5 -285.5q0 -145 -51.5 -257t-145.5 -187.5t-227 -113.5t-297 -38q-162 0 -291 37l-86 -119h-248l148 201q-117 74 -180.5 193.5t-63.5 283.5zM594 498 l266 362q-35 29 -98 29q-49 0 -82 -17.5t-51.5 -57.5t-26.5 -103.5t-8 -157.5v-55zM657 248q35 -33 105 -33q49 0 82 17.5t51 57.5t26.5 104.5t8.5 158.5v31q0 16 -2 32z" />
<glyph unicode="&#xf9;" horiz-adv-x="1675" d="M14 731v371h699v-631q0 -39 9 -62.5t23.5 -36t33 -16.5t34.5 -4q66 0 97.5 38t31.5 108v135q0 53 -18.5 75.5t-71.5 22.5h-59v371h698v-651q0 -48 27.5 -64t62.5 -16h53v-371h-594v274h-16q-23 -153 -125 -232t-297 -79q-137 0 -223 39t-133 98.5t-64.5 129t-17.5 130.5 v273q0 53 -18.5 75.5t-71.5 22.5h-60zM305 1547h403l209 -309h-246z" />
<glyph unicode="&#xfa;" horiz-adv-x="1675" d="M14 731v371h699v-631q0 -39 9 -62.5t23.5 -36t33 -16.5t34.5 -4q66 0 97.5 38t31.5 108v135q0 53 -18.5 75.5t-71.5 22.5h-59v371h698v-651q0 -48 27.5 -64t62.5 -16h53v-371h-594v274h-16q-23 -153 -125 -232t-297 -79q-137 0 -223 39t-133 98.5t-64.5 129t-17.5 130.5 v273q0 53 -18.5 75.5t-71.5 22.5h-60zM660 1238l209 309h403l-366 -309h-246z" />
<glyph unicode="&#xfb;" horiz-adv-x="1675" d="M14 731v371h699v-631q0 -39 9 -62.5t23.5 -36t33 -16.5t34.5 -4q66 0 97.5 38t31.5 108v135q0 53 -18.5 75.5t-71.5 22.5h-59v371h698v-651q0 -48 27.5 -64t62.5 -16h53v-371h-594v274h-16q-23 -153 -125 -232t-297 -79q-137 0 -223 39t-133 98.5t-64.5 129t-17.5 130.5 v273q0 53 -18.5 75.5t-71.5 22.5h-60zM388 1238l247 309h310l247 -309h-243l-160 111l-158 -111h-243z" />
<glyph unicode="&#xfc;" horiz-adv-x="1675" d="M14 731v371h699v-631q0 -39 9 -62.5t23.5 -36t33 -16.5t34.5 -4q66 0 97.5 38t31.5 108v135q0 53 -18.5 75.5t-71.5 22.5h-59v371h698v-651q0 -48 27.5 -64t62.5 -16h53v-371h-594v274h-16q-23 -153 -125 -232t-297 -79q-137 0 -223 39t-133 98.5t-64.5 129t-17.5 130.5 v273q0 53 -18.5 75.5t-71.5 22.5h-60zM451 1402q0 27 11.5 53.5t32 46t47 31.5t54.5 12q60 0 101 -42t41 -101q0 -64 -40 -103.5t-102 -39.5q-59 0 -102 41.5t-43 101.5zM842 1402q0 55 42 99t102 44q59 0 101 -42t42 -101q0 -64 -41 -103.5t-102 -39.5q-60 0 -102 41.5 t-42 101.5z" />
<glyph unicode="&#xfd;" horiz-adv-x="1466" d="M-14 -240q0 121 74.5 190.5t185.5 69.5q65 0 109 -19t72 -49t39 -66t11 -68q0 -72 -35.5 -110t-85.5 -48q4 -4 13 -6q12 -6 49 -6q35 0 62.5 17.5t50 43t39 55t26.5 54.5l2 6l-426 821q-10 23 -21.5 39t-28 26.5t-41 15.5t-61.5 5v371h803v-371q-63 0 -82.5 -18.5 t-3.5 -57.5l121 -258l117 258q16 35 -3.5 55.5t-82.5 20.5v371h557v-371q-74 0 -103.5 -20.5t-50.5 -65.5l-340 -727l-70 -158q-36 -84 -94.5 -155.5t-150.5 -118.5t-240 -47q-104 0 -182 26.5t-129 71.5t-75.5 103.5t-24.5 119.5zM662 1239l209 309h403l-366 -309h-246z " />
<glyph unicode="&#xfe;" horiz-adv-x="1647" d="M51 1102v371h692v-564h17q14 43 40.5 84t67.5 73t99.5 51.5t138.5 19.5q235 0 367.5 -148.5t132.5 -435.5t-135.5 -436.5t-370.5 -149.5q-64 0 -114 6.5t-91 18.5t-78 28l-74 35v-98q0 -53 18.5 -75.5t72.5 -22.5h59v-371h-842v371h60q41 0 62.5 26.5t21.5 63.5v1040 q0 58 -37 85.5t-84 27.5h-23zM743 305q17 -26 63 -41.5t85 -15.5q45 0 72.5 25.5t44 67.5t22.5 95t6 107q0 53 -6 101t-22.5 84t-44 56.5t-72.5 20.5t-74 -19.5t-45 -53.5t-22.5 -81t-6.5 -100v-246z" />
<glyph unicode="&#xff;" horiz-adv-x="1466" d="M-14 -240q0 121 74.5 190.5t185.5 69.5q65 0 109 -19t72 -49t39 -66t11 -68q0 -72 -35.5 -110t-85.5 -48q4 -4 13 -6q12 -6 49 -6q35 0 62.5 17.5t50 43t39 55t26.5 54.5l2 6l-426 821q-10 23 -21.5 39t-28 26.5t-41 15.5t-61.5 5v371h803v-371q-63 0 -82.5 -18.5 t-3.5 -57.5l121 -258l117 258q16 35 -3.5 55.5t-82.5 20.5v371h557v-371q-74 0 -103.5 -20.5t-50.5 -65.5l-340 -727l-70 -158q-36 -84 -94.5 -155.5t-150.5 -118.5t-240 -47q-104 0 -182 26.5t-129 71.5t-75.5 103.5t-24.5 119.5zM453 1403q0 27 11.5 53.5t32 46t47 31.5 t54.5 12q60 0 101 -42t41 -101q0 -64 -40 -103.5t-102 -39.5q-59 0 -102 41.5t-43 101.5zM844 1403q0 55 42 99t102 44q59 0 101 -42t42 -101q0 -64 -41 -103.5t-102 -39.5q-60 0 -102 41.5t-42 101.5z" />
<glyph unicode="&#x131;" horiz-adv-x="944" d="M82 0v371h39q53 0 78.5 33.5t25.5 72.5v141q0 58 -36.5 85.5t-84.5 27.5h-22v371h698v-623q0 -67 33 -87.5t84 -20.5h27v-371h-842z" />
<glyph unicode="&#x152;" horiz-adv-x="2400" d="M51 735q0 193 63.5 332t179.5 229t275.5 133.5t352.5 43.5h1437v-545h-350q0 53 -6 87t-22.5 53t-44 26.5t-68.5 7.5h-180v-266h319v-177h-319v-288h180q41 0 68.5 7t44 26.5t22.5 53.5t6 87h350v-545h-1437q-193 0 -352.5 43t-275.5 133t-179.5 228.5t-63.5 330.5z M723 735q0 -112 14.5 -190t45 -126t79.5 -69.5t119 -21.5q57 0 78.5 3t40.5 7v797q-25 4 -46.5 7t-74.5 3q-80 0 -130 -21.5t-78 -70.5t-38 -127t-10 -191z" />
<glyph unicode="&#x153;" horiz-adv-x="2277" d="M41 553q0 147 51 258t145.5 185.5t227.5 112.5t297 38q119 0 222 -24.5t187 -73.5q160 98 377 98q183 0 314 -48t214 -134t121 -207q37 -115 37 -254v-15h-790q4 -149 56 -205.5t151 -56.5q32 0 64 9.5t58.5 31t46 57t25.5 89.5h365q-21 -129 -74 -216t-137 -140.5 t-195.5 -77t-249.5 -23.5q-104 0 -201.5 24.5t-178.5 73.5q-170 -98 -412 -98q-164 0 -297 38t-227.5 113.5t-145.5 187.5t-51 257zM610 553q0 -84 7.5 -142.5t24.5 -94t46 -52t74 -16.5t73.5 16.5t46 52t24.5 94t7 142.5q0 168 -31.5 235.5t-119.5 67.5q-45 0 -74 -15.5 t-46 -51t-24.5 -94t-7.5 -142.5zM1444 664h293q-6 98 -42 155.5t-104 57.5q-69 0 -103 -49.5t-44 -163.5z" />
<glyph unicode="&#x178;" horiz-adv-x="1575" d="M20 1102v371h879v-371q-88 0 -117 -29q-13 -14 -13 -32t15 -40l138 -192h8l137 192q20 22 20 41q0 15 -13 29q-27 31 -122 31v371h602v-371q-30 0 -52.5 -6t-42 -19.5t-39.5 -34.5l-50 -53l-287 -352v-154q0 -65 38 -88.5t126 -23.5v-371h-917v371q88 0 126 23.5t38 88.5 v154l-289 352q-23 23 -39 43.5t-34.5 35.5t-44.5 24.5t-67 9.5zM508 1718q0 27 11.5 53.5t32 46t47 31.5t54.5 12q60 0 101 -42t41 -101q0 -64 -40 -103.5t-102 -39.5q-59 0 -102 41.5t-43 101.5zM899 1718q0 55 42 99t102 44q59 0 101 -42t42 -101q0 -64 -41 -103.5 t-102 -39.5q-60 0 -102 41.5t-42 101.5z" />
<glyph unicode="&#x2c6;" horiz-adv-x="1024" d="M109 1239l247 309h310l247 -309h-243l-160 111l-158 -111h-243z" />
<glyph unicode="&#x2da;" horiz-adv-x="1024" d="M248 1485q0 55 20.5 103t56 85t84 57.5t103.5 20.5t103.5 -20.5t85 -57.5t57 -85t20.5 -103t-20.5 -104.5t-57 -85t-85 -56t-103.5 -20.5t-103.5 20.5t-84 56t-56 85t-20.5 104.5zM410 1485q0 -43 28.5 -73t73.5 -30q41 0 71.5 30t30.5 73q0 41 -30.5 71.5t-71.5 30.5 q-45 0 -73.5 -30.5t-28.5 -71.5z" />
<glyph unicode="&#x2dc;" horiz-adv-x="1024" d="M135 1257q6 54 26.5 106t53.5 93t79 65.5t105 24.5q45 0 82 -11t69 -23.5t63.5 -23.5t66.5 -11q27 0 52.5 17t31.5 52h160q-6 -53 -26.5 -105t-53.5 -93t-79 -66t-106 -25q-47 0 -82.5 11.5t-68.5 23.5l-64 24q-30 11 -65 11q-27 0 -52.5 -17.5t-31.5 -52.5h-160z" />
<glyph unicode="&#x2000;" horiz-adv-x="1023" />
<glyph unicode="&#x2001;" horiz-adv-x="2046" />
<glyph unicode="&#x2002;" horiz-adv-x="1023" />
<glyph unicode="&#x2003;" horiz-adv-x="2046" />
<glyph unicode="&#x2004;" horiz-adv-x="682" />
<glyph unicode="&#x2005;" horiz-adv-x="511" />
<glyph unicode="&#x2006;" horiz-adv-x="341" />
<glyph unicode="&#x2007;" horiz-adv-x="341" />
<glyph unicode="&#x2008;" horiz-adv-x="255" />
<glyph unicode="&#x2009;" horiz-adv-x="409" />
<glyph unicode="&#x200a;" horiz-adv-x="113" />
<glyph unicode="&#x2010;" horiz-adv-x="860" d="M82 424v395h696v-395h-696z" />
<glyph unicode="&#x2011;" horiz-adv-x="860" d="M82 424v395h696v-395h-696z" />
<glyph unicode="&#x2012;" horiz-adv-x="860" d="M82 424v395h696v-395h-696z" />
<glyph unicode="&#x2013;" horiz-adv-x="1024" d="M61 465v313h902v-313h-902z" />
<glyph unicode="&#x2014;" horiz-adv-x="2048" d="M0 465v313h2048v-313h-2048z" />
<glyph unicode="&#x2018;" horiz-adv-x="651" d="M82 1079q0 68 19.5 137.5t69.5 129t135 104.5t214 63v-163q-76 -2 -121 -24.5t-71 -70.5q104 0 172.5 -51t68.5 -166q0 -43 -15 -84t-46 -72.5t-75 -52t-101 -20.5q-113 0 -181.5 73.5t-68.5 196.5z" />
<glyph unicode="&#x2019;" horiz-adv-x="651" d="M82 1284q0 43 15.5 84t46 73t74.5 52t101 20q113 0 181.5 -73.5t68.5 -196.5q0 -67 -19.5 -137t-69.5 -129t-135 -104.5t-214 -63.5v164q76 2 121 24.5t72 69.5q-105 0 -173.5 51t-68.5 166z" />
<glyph unicode="&#x201a;" horiz-adv-x="651" d="M82 217q0 43 15.5 84t46 73t74.5 52t101 20q113 0 181.5 -73.5t68.5 -196.5q0 -67 -19.5 -137t-69.5 -129.5t-135 -104.5t-214 -63v164q76 2 121 24.5t72 69.5q-105 0 -173.5 51t-68.5 166z" />
<glyph unicode="&#x201c;" horiz-adv-x="1184" d="M82 1079q0 68 19.5 137.5t69.5 129t135 104.5t214 63v-163q-76 -2 -121 -24.5t-71 -70.5q104 0 172.5 -51t68.5 -166q0 -43 -15 -84t-46 -72.5t-75 -52t-101 -20.5q-113 0 -181.5 73.5t-68.5 196.5zM614 1079q0 68 19.5 137.5t70 129t135.5 104.5t214 63v-163 q-76 -2 -121 -24.5t-72 -70.5q105 0 173.5 -51t68.5 -166q0 -43 -15.5 -84t-46 -72.5t-74.5 -52t-102 -20.5q-112 0 -181 73.5t-69 196.5z" />
<glyph unicode="&#x201d;" horiz-adv-x="1184" d="M82 1284q0 43 15.5 84t46 73t74.5 52t101 20q113 0 181.5 -73.5t68.5 -196.5q0 -67 -19.5 -137t-69.5 -129t-135 -104.5t-214 -63.5v164q76 2 121 24.5t72 69.5q-105 0 -173.5 51t-68.5 166zM614 1284q0 43 15.5 84t46.5 73t75 52t101 20q113 0 181.5 -73.5t68.5 -196.5 q0 -67 -19.5 -137t-69.5 -129t-135 -104.5t-214 -63.5v164q75 2 120 24.5t72 69.5q-104 0 -173 51t-69 166z" />
<glyph unicode="&#x201e;" horiz-adv-x="1184" d="M82 217q0 43 15.5 84t46 73t74.5 52t101 20q113 0 181.5 -73.5t68.5 -196.5q0 -67 -19.5 -137t-69.5 -129.5t-135 -104.5t-214 -63v164q76 2 121 24.5t72 69.5q-105 0 -173.5 51t-68.5 166zM614 217q0 43 15.5 84t46.5 73t75 52t101 20q113 0 181.5 -73.5t68.5 -196.5 q0 -67 -19.5 -137t-69.5 -129.5t-135 -104.5t-214 -63v164q75 2 120 24.5t72 69.5q-104 0 -173 51t-69 166z" />
<glyph unicode="&#x2022;" horiz-adv-x="797" d="M102 731q0 62 24 115t64.5 93t94 63.5t114.5 23.5q60 0 114 -23.5t94 -63.5t63.5 -94t23.5 -114q0 -59 -23.5 -113.5t-63.5 -95.5t-94 -64.5t-116 -23.5q-61 0 -115.5 23.5t-94.5 64.5t-62.5 94.5t-22.5 114.5z" />
<glyph unicode="&#x2026;" horiz-adv-x="2015" d="M82 211q0 51 20.5 98t54 81t80 54.5t99.5 20.5q51 0 98 -20.5t81 -54.5t54.5 -81t20.5 -98q0 -53 -20.5 -99t-54.5 -80t-81 -54.5t-98 -20.5q-53 0 -99.5 20.5t-80 54.5t-54 80t-20.5 99zM754 211q0 51 20.5 98t54 81t79.5 54.5t100 20.5q51 0 98 -20.5t81 -54.5 t54.5 -81t20.5 -98q0 -53 -20.5 -99t-54.5 -80t-81 -54.5t-98 -20.5q-54 0 -100 20.5t-79.5 54.5t-54 80t-20.5 99zM1425 211q0 51 20.5 98t54.5 81t80 54.5t99 20.5q52 0 99 -20.5t80.5 -54.5t54 -81t20.5 -98q0 -53 -20.5 -99t-54 -80t-80.5 -54.5t-99 -20.5 q-53 0 -99 20.5t-80 54.5t-54.5 80t-20.5 99z" />
<glyph unicode="&#x202f;" horiz-adv-x="409" />
<glyph unicode="&#x2039;" horiz-adv-x="618" d="M82 561q0 14 8 38t30.5 63.5t61.5 98t101 142.5h262l-61 -152q-23 -61 -35.5 -99t-16.5 -59.5t-4 -31.5q0 -18 5 -41.5t19.5 -62.5t39.5 -95l65 -143h-274q-62 84 -101 142.5t-61.5 97.5t-30.5 62.5t-8 39.5z" />
<glyph unicode="&#x203a;" horiz-adv-x="618" d="M61 219l65 143q26 56 40 95t19 62.5t5 41.5q0 10 -4 31.5t-16 59.5t-36 100l-60 151h262q61 -84 100 -142.5t61.5 -98t31 -63.5t8.5 -38q0 -16 -8.5 -39.5t-31 -62.5t-61.5 -97.5t-100 -142.5h-275z" />
<glyph unicode="&#x205f;" horiz-adv-x="511" />
<glyph unicode="&#x20ac;" horiz-adv-x="1597" d="M0 500l41 202h92v35v49h-133l41 203h121q33 135 103.5 231.5t164.5 158t209 90t238 28.5q112 0 201 -30.5t143 -67.5v74h297v-560v-24h-310v12q-2 66 -20.5 114t-49 79.5t-68.5 47t-81 15.5q-78 0 -132 -38t-83 -130h277l-41 -203h-267v-49v-35h246l-41 -202h-182 q25 -99 84 -141t149 -42q43 0 85 15.5t74 48.5t51.5 84t19.5 121h307q0 -123 -34 -233.5t-110.5 -193.5t-201.5 -132.5t-305 -49.5q-137 0 -256 30t-214.5 93.5t-162 161.5t-96.5 238h-156z" />
<glyph unicode="&#x2122;" horiz-adv-x="2136" d="M102 1188v285h768v-285h-141q0 65 -9 94t-50 29h-29v-322q0 -31 18.5 -43t61.5 -12v-180h-449v180q43 0 61.5 12t18.5 43v322h-30q-41 0 -49.5 -29t-8.5 -94h-162zM899 754v180q43 0 62.5 12t19.5 43v248q0 31 -19.5 43t-62.5 12v181h465l113 -336l98 336h459v-181 q-41 0 -60.5 -12t-19.5 -43v-248q0 -31 19.5 -43t60.5 -12v-180h-432v180q40 0 54.5 12t14.5 43v281l-168 -516h-188l-168 487v-258q0 -31 13.5 -40t56.5 -9v-180h-318z" />
<glyph unicode="&#xe000;" horiz-adv-x="1100" d="M0 1100h1100v-1100h-1100v1100z" />
<glyph unicode="&#xfb01;" horiz-adv-x="1929" d="M41 731v371h162q-17 8 -36.5 23.5t-35.5 39t-27.5 54t-11.5 69.5q0 70 40 121t111.5 84t172 48t223.5 15q143 0 240.5 -17t158 -49t86 -77t25.5 -100q0 -33 -10.5 -63.5t-35 -55.5t-64.5 -40t-97 -15q-104 0 -153.5 49t-49.5 121q0 41 22.5 68.5t49.5 37.5l-12 8 q-54 0 -87.5 -14t-52 -33.5t-24.5 -44t-6 -47.5q0 -33 13 -65.5t44 -58t82 -42t127 -16.5h70v-371h-185v-252q0 -67 33 -87.5t84 -20.5h68v-371h-883v371h39q53 0 78.5 33.5t25.5 72.5v254h-184zM1067 0v371h39q53 0 78.5 33.5t25.5 72.5v141q0 58 -36.5 85.5t-83.5 27.5 h-23v371h698v-623q0 -67 33 -87.5t84 -20.5h27v-371h-842zM1194 1348q0 86 65.5 147t186.5 61q123 0 189.5 -61t66.5 -147q0 -88 -66.5 -148.5t-189.5 -60.5q-121 0 -186.5 60.5t-65.5 148.5z" />
<glyph unicode="&#xfb02;" horiz-adv-x="1970" d="M41 731v371h162q-17 8 -36.5 23.5t-35.5 39t-27.5 54t-11.5 69.5q0 70 39 121t109.5 84t167 48t210.5 15q132 0 222 -17t145 -49t78.5 -77t23.5 -100q0 -33 -10 -63.5t-33.5 -55.5t-61.5 -40t-91 -15q-98 0 -145.5 49t-47.5 121q0 41 22.5 68.5t49.5 37.5l-12 8 q-53 0 -87 -14t-52.5 -33.5t-24.5 -44t-6 -47.5q0 -33 13 -65.5t44 -58t82 -42t127 -16.5h152v-371h-226v-252q0 -67 33 -87.5t84 -20.5h68v-371h-883v371h39q53 0 78.5 33.5t25.5 72.5v254h-184zM1108 0v371h39q53 0 78.5 33.5t25.5 72.5v512q0 113 -100 113h-23v371h678 v-994q0 -67 33 -87.5t84 -20.5h27v-371h-842z" />
<glyph unicode="&#xfb03;" horiz-adv-x="3118" d="M41 731v371h162q-17 8 -36.5 23.5t-35.5 39t-27.5 54t-11.5 69.5q0 70 40 121t111.5 84t172 48t223.5 15q143 0 240.5 -17t158 -49t86 -77t25.5 -100q0 -33 -10.5 -63.5t-35 -55.5t-64.5 -40t-97 -15q-104 0 -153.5 49t-49.5 121q0 41 22.5 68.5t49.5 37.5l-12 8 q-54 0 -87.5 -14t-52 -33.5t-24.5 -44t-6 -47.5q0 -33 13 -65.5t44 -58t82 -42t127 -16.5h111v-371h-226v-252q0 -67 33 -87.5t84 -20.5h68v-371h-883v371h39q53 0 78.5 33.5t25.5 72.5v254h-184zM1128 731v371h162q-17 8 -36.5 23.5t-35.5 39t-27.5 54t-11.5 69.5 q0 70 40 121t111.5 84t172 48t223.5 15q143 0 240.5 -17t158 -49t86 -77t25.5 -100q0 -33 -10.5 -63.5t-35 -55.5t-64.5 -40t-97 -15q-104 0 -153.5 49t-49.5 121q0 41 22.5 68.5t49.5 37.5l-12 8q-54 0 -87.5 -14t-52 -33.5t-24.5 -44t-6 -47.5q0 -33 13 -65.5t44 -58 t82 -42t127 -16.5h111v-371h-226v-252q0 -67 33 -87.5t84 -20.5h68v-371h-883v371h39q53 0 78.5 33.5t25.5 72.5v254h-184zM2256 0v371h39q53 0 78.5 33.5t25.5 72.5v141q0 58 -36.5 85.5t-84.5 27.5h-22v371h698v-623q0 -67 33 -87.5t84 -20.5h27v-371h-842zM2383 1348 q0 86 65.5 147t186.5 61q123 0 189.5 -61t66.5 -147q0 -88 -66.5 -148.5t-189.5 -60.5q-121 0 -186.5 60.5t-65.5 148.5z" />
<glyph unicode="&#xfb04;" horiz-adv-x="3118" d="M41 731v371h162q-17 8 -36.5 23.5t-35.5 39t-27.5 54t-11.5 69.5q0 70 40 121t111.5 84t172 48t223.5 15q143 0 240.5 -17t158 -49t86 -77t25.5 -100q0 -33 -10.5 -63.5t-35 -55.5t-64.5 -40t-97 -15q-104 0 -153.5 49t-49.5 121q0 41 22.5 68.5t49.5 37.5l-12 8 q-54 0 -87.5 -14t-52 -33.5t-24.5 -44t-6 -47.5q0 -33 13 -65.5t44 -58t82 -42t127 -16.5h111v-371h-226v-252q0 -67 33 -87.5t84 -20.5h68v-371h-883v371h39q53 0 78.5 33.5t25.5 72.5v254h-184zM1128 731v371h162q-17 8 -36.5 23.5t-35.5 39t-27.5 54t-11.5 69.5 q0 70 40 121t111.5 84t172 48t223.5 15q143 0 240.5 -17t158 -49t86 -77t25.5 -100q0 -33 -10.5 -63.5t-35 -55.5t-64.5 -40t-97 -15q-104 0 -153.5 49t-49.5 121q0 41 22.5 68.5t49.5 37.5l-12 8q-54 0 -87.5 -14t-52 -33.5t-24.5 -44t-6 -47.5q0 -33 13 -65.5t44 -58 t82 -42t127 -16.5h111v-371h-226v-252q0 -67 33 -87.5t84 -20.5h68v-371h-883v371h39q53 0 78.5 33.5t25.5 72.5v254h-184zM2256 0v371h39q53 0 78.5 33.5t25.5 72.5v512q0 58 -36.5 85.5t-84.5 27.5h-22v371h698v-994q0 -67 33 -87.5t84 -20.5h27v-371h-842z" />
</font>
</defs>
</svg>
